<svg width="92" height="29" viewBox="0 0 92 29" fill="none" xmlns="http://www.w3.org/2000/svg">
<path d="M64.3393 2.91405C64.3372 3.67339 64.0309 4.40279 63.4847 4.94182C62.9364 5.48299 62.1933 5.79101 61.4179 5.79956C59.8438 5.82095 58.4752 4.42418 58.4966 2.90121C58.5201 1.31621 59.8245 0.00927734 61.4244 0.00927734C63.0264 0.0114163 64.3393 1.32477 64.3393 2.91405Z" fill="#3C1441"/>
<path d="M71.239 2.93088C71.3225 4.29343 69.9647 5.82068 68.2662 5.80357C66.5657 5.78645 65.3685 4.28059 65.4049 2.88382C65.4456 1.28813 66.7135 0.000444673 68.3155 0.0132787C70.1339 0.0239737 71.3525 1.65817 71.239 2.93088Z" fill="#3C1441"/>
<path d="M83.2468 16.647C84.7332 18.5913 86.181 20.4865 87.6289 22.3838C89.0746 24.2832 90.5566 26.666 91.9938 28.5548H85.0009L79.3574 20.7688L77.9117 22.1741V28.5548H72.2168V2.68994H77.946L77.9203 14.3625L78.0402 14.4117L84.5105 7.69521H92.0002L83.2468 16.647Z" fill="#3C1441"/>
<path d="M21.1481 7.47801V2.69092H26.8645V7.44165H36.2282C36.2389 9.08013 36.2282 10.971 36.2282 12.6202H26.8752C26.8752 12.6202 26.8752 13.4373 26.8752 13.5934C26.8752 15.9891 26.8752 18.3848 26.8752 20.7805C26.873 21.1035 26.903 21.4265 26.9651 21.7452C27.2157 22.9494 28.383 23.6596 29.6787 23.4222C30.544 23.266 31.1458 22.774 31.4093 21.9548C31.5549 21.5013 31.5785 21.0051 31.6427 20.5281C31.6534 20.3548 31.6534 20.1816 31.6427 20.0083L37.0528 20.5644C37.1856 21.2126 37.0785 21.8243 36.9928 22.419C36.7572 24.051 36.0847 25.482 34.8468 26.6242C33.8423 27.5569 32.5787 28.1707 31.2187 28.3868C29.199 28.7183 27.2093 28.5665 25.3203 27.7472C22.975 26.7312 21.6664 24.9045 21.2595 22.4382C21.1781 21.8863 21.1417 21.3302 21.1481 20.7719C21.1374 18.4297 21.1481 16.0896 21.1481 13.7453V12.6458H18.0983V7.47801H21.1481Z" fill="#3C1441"/>
<path d="M0.0174111 21.3477C0.0281199 21.2878 4.98414 20.3167 4.98414 20.3167C5.04411 20.4878 5.10622 20.6504 5.15976 20.8151C5.3461 21.4183 5.65237 21.9808 6.06144 22.4664C6.99739 23.523 8.22033 23.8161 9.57178 23.7177C9.97229 23.6899 10.3664 23.6172 10.7497 23.5017C11.026 23.4161 11.2852 23.2835 11.5165 23.1102C12.3111 22.5198 12.2832 21.5017 11.4308 21.0054C10.9554 20.7381 10.4413 20.5477 9.90804 20.4407C8.98065 20.2461 8.034 20.1605 7.10448 19.9873C5.70805 19.7284 4.40158 19.245 3.27074 18.3659C1.86789 17.2707 1.16753 15.8162 1.099 14.0665C1.00262 11.4826 2.2277 9.63448 4.51724 8.51364C6.87959 7.35217 9.36189 7.20243 11.8378 8.13932C14.1937 9.03342 15.7143 10.7575 16.5068 13.1125C16.5111 13.1638 16.5089 13.213 16.5004 13.2644L12.0005 14.7317C11.8763 14.4922 11.7735 14.2847 11.6643 14.0836C11.2745 13.3478 10.6191 12.7874 9.82451 12.5114C9.03206 12.2355 8.16251 12.2676 7.39362 12.5991C7.1773 12.6911 6.9824 12.828 6.82177 12.997C6.72967 13.0933 6.65899 13.2045 6.61402 13.3285C6.57118 13.4526 6.55405 13.5831 6.5669 13.7136C6.57975 13.844 6.62044 13.9702 6.68469 14.0836C6.75109 14.1991 6.84104 14.2975 6.94813 14.3724C7.24583 14.582 7.57995 14.7275 7.93548 14.8045C8.64654 14.952 9.3726 15.0333 10.0944 15.1296C11.3816 15.3028 12.6409 15.5809 13.8296 16.1135C14.787 16.5477 15.6415 17.1167 16.3119 17.9317C17.0165 18.7937 17.4342 19.8482 17.5091 20.952C17.6698 22.8985 17.1429 24.6268 15.7636 26.0599C14.7698 27.0781 13.504 27.7989 12.114 28.1369C9.37688 28.847 6.7211 28.7016 4.2281 27.3048C1.99639 26.0578 0.655654 24.1262 0.0216946 21.6942C0.00884412 21.6429 0.00241885 21.5979 0.000277098 21.5338C-0.00186466 21.461 0.00884412 21.4097 0.0174111 21.3477Z" fill="#3C1441"/>
<path d="M67.7056 7.75635V28.5603H62.0364V7.75635H67.7056Z" fill="#3C1441"/>
<path fill-rule="evenodd" clip-rule="evenodd" d="M40.85 11.0426C39.1044 13.0854 38.3463 15.4747 38.3591 18.1206C38.3591 18.219 38.357 18.3174 38.3548 18.4179C38.3505 18.6425 38.3441 18.8693 38.3655 19.0917C38.4041 19.5409 38.4683 19.9858 38.5604 20.4265C39.3336 23.9772 41.3704 26.5119 44.8293 27.8338C47.0311 28.6745 49.3056 28.7622 51.6059 28.2231C54.4565 27.5558 56.6625 25.9815 58.0333 23.4254C59.8238 20.0778 59.8516 16.6212 58.2539 13.1902C57.108 10.7346 55.1783 9.05765 52.5953 8.16782C50.2137 7.34645 47.8042 7.34003 45.3948 8.07799C43.6192 8.60846 42.0386 9.63732 40.85 11.0426ZM52.8909 15.3613C53.3685 16.1784 53.6148 17.1067 53.6041 18.0522C53.5934 18.6425 53.5184 19.1858 53.3707 19.6906C53.1522 20.4521 52.7667 21.1216 52.1927 21.7184C52.1841 21.727 52.1734 21.7377 52.1649 21.7484C50.6485 23.3013 47.9135 23.5794 46.0523 22.2232C45.6989 21.9665 45.3776 21.6521 45.1013 21.2757C44.8936 20.989 44.7094 20.6682 44.5595 20.311C44.5509 20.2917 44.5445 20.2746 44.5359 20.2575C44.0733 19.1324 43.9384 18.0179 44.1654 16.9527C44.3325 16.1741 44.6944 15.4191 45.2663 14.7089C47.1767 12.341 50.9269 12.525 52.6703 15.0191C52.7474 15.1324 52.8224 15.2458 52.8909 15.3613Z" fill="#3C1441"/>
</svg>
