<svg width="424" height="145" viewBox="0 0 424 145" fill="none" xmlns="http://www.w3.org/2000/svg">
<g filter="url(#filter0_d_5312_21189)">
<rect x="12" y="8" width="400" height="121" rx="4" fill="#3C1441" shape-rendering="crispEdges"/>
<path opacity="0.8" d="M23.0043 28V17.8182H24.8487V22.1286H29.5668V17.8182H31.4162V28H29.5668V23.6747H24.8487V28H23.0043ZM33.3427 28V20.3636H35.1424V28H33.3427ZM34.2475 19.2798C33.9625 19.2798 33.7172 19.1854 33.5117 18.9964C33.3062 18.8042 33.2035 18.5739 33.2035 18.3054C33.2035 18.0336 33.3062 17.8033 33.5117 17.6143C33.7172 17.4221 33.9625 17.326 34.2475 17.326C34.5359 17.326 34.7811 17.4221 34.9833 17.6143C35.1888 17.8033 35.2915 18.0336 35.2915 18.3054C35.2915 18.5739 35.1888 18.8042 34.9833 18.9964C34.7811 19.1854 34.5359 19.2798 34.2475 19.2798ZM43.0286 22.3821L41.388 22.5611C41.3416 22.3954 41.2604 22.2396 41.1444 22.0938C41.0317 21.9479 40.8792 21.8303 40.687 21.7408C40.4947 21.6513 40.2594 21.6065 39.981 21.6065C39.6065 21.6065 39.2916 21.6877 39.0364 21.8501C38.7845 22.0125 38.6602 22.223 38.6635 22.4815C38.6602 22.7036 38.7414 22.8842 38.9071 23.0234C39.0762 23.1626 39.3546 23.277 39.7424 23.3665L41.0449 23.6449C41.7675 23.8007 42.3044 24.0476 42.6557 24.3857C43.0104 24.7237 43.1893 25.1662 43.1926 25.7131C43.1893 26.1937 43.0485 26.6179 42.7701 26.9858C42.495 27.3504 42.1122 27.6354 41.6216 27.8409C41.1311 28.0464 40.5676 28.1491 39.9313 28.1491C38.9966 28.1491 38.2443 27.9536 37.6742 27.5625C37.1041 27.1681 36.7644 26.6196 36.655 25.9169L38.41 25.7479C38.4895 26.0926 38.6586 26.3527 38.9171 26.5284C39.1756 26.7041 39.512 26.7919 39.9263 26.7919C40.3539 26.7919 40.6969 26.7041 40.9554 26.5284C41.2173 26.3527 41.3482 26.1357 41.3482 25.8771C41.3482 25.6584 41.2637 25.4777 41.0946 25.3352C40.9289 25.1927 40.6704 25.0833 40.3191 25.0071L39.0165 24.7337C38.284 24.5812 37.7421 24.3243 37.3908 23.9631C37.0395 23.5985 36.8655 23.1378 36.8688 22.581C36.8655 22.1103 36.9931 21.7027 37.2516 21.358C37.5134 21.0099 37.8764 20.7415 38.3404 20.5526C38.8077 20.3603 39.3463 20.2642 39.9561 20.2642C40.851 20.2642 41.5553 20.4548 42.0691 20.8359C42.5861 21.2171 42.906 21.7325 43.0286 22.3821ZM48.4899 20.3636V21.7557H44.1V20.3636H48.4899ZM45.1838 18.5341H46.9835V25.7031C46.9835 25.9451 47.0199 26.1307 47.0929 26.2599C47.1691 26.3859 47.2685 26.4721 47.3912 26.5185C47.5138 26.5649 47.6497 26.5881 47.7988 26.5881C47.9115 26.5881 48.0143 26.5798 48.1071 26.5632C48.2032 26.5466 48.2761 26.5317 48.3258 26.5185L48.6291 27.9254C48.533 27.9586 48.3954 27.995 48.2164 28.0348C48.0408 28.0746 47.8253 28.0978 47.5701 28.1044C47.1194 28.1177 46.7134 28.0497 46.3521 27.9006C45.9908 27.7481 45.7041 27.5128 45.492 27.1946C45.2832 26.8764 45.1805 26.4787 45.1838 26.0014V18.5341ZM53.244 28.1491C52.4982 28.1491 51.8519 27.9851 51.305 27.657C50.7582 27.3288 50.3339 26.8698 50.0323 26.2798C49.734 25.6899 49.5849 25.0005 49.5849 24.2116C49.5849 23.4228 49.734 22.7318 50.0323 22.1385C50.3339 21.5452 50.7582 21.0845 51.305 20.7564C51.8519 20.4283 52.4982 20.2642 53.244 20.2642C53.9897 20.2642 54.636 20.4283 55.1829 20.7564C55.7298 21.0845 56.1523 21.5452 56.4506 22.1385C56.7522 22.7318 56.9031 23.4228 56.9031 24.2116C56.9031 25.0005 56.7522 25.6899 56.4506 26.2798C56.1523 26.8698 55.7298 27.3288 55.1829 27.657C54.636 27.9851 53.9897 28.1491 53.244 28.1491ZM53.2539 26.7074C53.6583 26.7074 53.9963 26.5964 54.2681 26.3743C54.5399 26.1489 54.7421 25.8473 54.8746 25.4695C55.0105 25.0916 55.0785 24.6707 55.0785 24.2067C55.0785 23.7393 55.0105 23.3168 54.8746 22.9389C54.7421 22.5578 54.5399 22.2545 54.2681 22.0291C53.9963 21.8037 53.6583 21.6911 53.2539 21.6911C52.8396 21.6911 52.4949 21.8037 52.2198 22.0291C51.948 22.2545 51.7442 22.5578 51.6083 22.9389C51.4757 23.3168 51.4094 23.7393 51.4094 24.2067C51.4094 24.6707 51.4757 25.0916 51.6083 25.4695C51.7442 25.8473 51.948 26.1489 52.2198 26.3743C52.4949 26.5964 52.8396 26.7074 53.2539 26.7074ZM58.4306 28V20.3636H60.1756V21.6364H60.2551C60.3944 21.1955 60.633 20.8558 60.9711 20.6172C61.3124 20.3752 61.7019 20.2543 62.1394 20.2543C62.2388 20.2543 62.3498 20.2592 62.4725 20.2692C62.5984 20.2758 62.7028 20.2874 62.7857 20.304V21.9595C62.7095 21.933 62.5885 21.9098 62.4228 21.8899C62.2604 21.8667 62.1029 21.8551 61.9505 21.8551C61.6223 21.8551 61.3274 21.9264 61.0655 22.0689C60.807 22.2081 60.6032 22.402 60.454 22.6506C60.3049 22.8991 60.2303 23.1858 60.2303 23.5107V28H58.4306ZM63.9814 28V20.3636H65.7811V28H63.9814ZM64.8862 19.2798C64.6011 19.2798 64.3559 19.1854 64.1504 18.9964C63.9449 18.8042 63.8422 18.5739 63.8422 18.3054C63.8422 18.0336 63.9449 17.8033 64.1504 17.6143C64.3559 17.4221 64.6011 17.326 64.8862 17.326C65.1745 17.326 65.4198 17.4221 65.622 17.6143C65.8275 17.8033 65.9302 18.0336 65.9302 18.3054C65.9302 18.5739 65.8275 18.8042 65.622 18.9964C65.4198 19.1854 65.1745 19.2798 64.8862 19.2798ZM72.7276 30.8636V26.7969H72.6531C72.5603 26.9825 72.426 27.1797 72.2504 27.3885C72.0747 27.594 71.8427 27.7696 71.5543 27.9155C71.266 28.0613 70.9031 28.1342 70.4656 28.1342C69.8656 28.1342 69.3287 27.9801 68.8548 27.6719C68.3808 27.3636 68.0063 26.9162 67.7312 26.3295C67.4561 25.7429 67.3185 25.0303 67.3185 24.1918C67.3185 23.3433 67.4577 22.6274 67.7362 22.044C68.0179 21.4574 68.3974 21.0149 68.8746 20.7166C69.3519 20.415 69.8839 20.2642 70.4705 20.2642C70.918 20.2642 71.2859 20.3404 71.5742 20.4929C71.8626 20.642 72.0913 20.8227 72.2603 21.0348C72.4293 21.2436 72.5603 21.4408 72.6531 21.6264H72.7624V20.3636H74.5323V30.8636H72.7276ZM70.9677 26.6577C71.3488 26.6577 71.6737 26.5549 71.9421 26.3494C72.2106 26.1406 72.4144 25.8506 72.5536 25.4794C72.6928 25.1082 72.7624 24.6757 72.7624 24.1818C72.7624 23.688 72.6928 23.2588 72.5536 22.8942C72.4177 22.5296 72.2156 22.2462 71.9471 22.044C71.6819 21.8419 71.3555 21.7408 70.9677 21.7408C70.5666 21.7408 70.2319 21.8452 69.9634 22.054C69.695 22.2628 69.4928 22.5511 69.3569 22.919C69.221 23.2869 69.1531 23.7079 69.1531 24.1818C69.1531 24.6591 69.221 25.085 69.3569 25.4595C69.4961 25.8307 69.6999 26.1241 69.9684 26.3395C70.2402 26.5516 70.5733 26.6577 70.9677 26.6577ZM81.2489 24.7884V20.3636H83.0487V28H81.3036V26.6428H81.2241C81.0517 27.0703 80.7683 27.42 80.3739 27.6918C79.9828 27.9635 79.5006 28.0994 78.9272 28.0994C78.4267 28.0994 77.9843 27.9884 77.5998 27.7663C77.2186 27.541 76.9203 27.2145 76.7049 26.7869C76.4895 26.3561 76.3817 25.8357 76.3817 25.2259V20.3636H78.1815V24.9474C78.1815 25.4313 78.314 25.8158 78.5792 26.1009C78.8443 26.3859 79.1924 26.5284 79.6232 26.5284C79.8884 26.5284 80.1452 26.4638 80.3938 26.3345C80.6424 26.2053 80.8462 26.013 81.0053 25.7578C81.1677 25.4993 81.2489 25.1761 81.2489 24.7884ZM88.28 28.1491C87.5144 28.1491 86.8532 27.9901 86.2963 27.6719C85.7428 27.3504 85.3169 26.8963 85.0186 26.3097C84.7203 25.7197 84.5712 25.0253 84.5712 24.2266C84.5712 23.4411 84.7203 22.7517 85.0186 22.1584C85.3203 21.5618 85.7412 21.0978 86.2814 20.7663C86.8217 20.4316 87.4564 20.2642 88.1855 20.2642C88.6562 20.2642 89.1003 20.3404 89.5179 20.4929C89.9389 20.642 90.3101 20.8741 90.6316 21.1889C90.9564 21.5038 91.2116 21.9048 91.3972 22.392C91.5828 22.8759 91.6756 23.4527 91.6756 24.1222V24.674H85.4164V23.4609H89.9505C89.9471 23.1162 89.8726 22.8097 89.7267 22.5412C89.5809 22.2694 89.3771 22.0556 89.1152 21.8999C88.8567 21.7441 88.5551 21.6662 88.2104 21.6662C87.8425 21.6662 87.5194 21.7557 87.2409 21.9347C86.9625 22.1103 86.7454 22.3423 86.5897 22.6307C86.4372 22.9157 86.3593 23.2289 86.356 23.5703V24.6293C86.356 25.0734 86.4372 25.4545 86.5996 25.7727C86.762 26.0876 86.9891 26.3295 87.2807 26.4986C87.5724 26.6643 87.9138 26.7472 88.3049 26.7472C88.5667 26.7472 88.8037 26.7107 89.0158 26.6378C89.2279 26.5616 89.4119 26.4505 89.5676 26.3047C89.7234 26.1589 89.8411 25.9782 89.9206 25.7628L91.601 25.9517C91.495 26.3958 91.2928 26.7836 90.9945 27.1151C90.6995 27.4432 90.3217 27.6984 89.861 27.8807C89.4003 28.0597 88.8733 28.1491 88.28 28.1491ZM99.5046 28.1342C98.9047 28.1342 98.3678 27.9801 97.8938 27.6719C97.4199 27.3636 97.0453 26.9162 96.7702 26.3295C96.4951 25.7429 96.3576 25.0303 96.3576 24.1918C96.3576 23.3433 96.4968 22.6274 96.7752 22.044C97.0569 21.4574 97.4364 21.0149 97.9137 20.7166C98.391 20.415 98.9229 20.2642 99.5096 20.2642C99.957 20.2642 100.325 20.3404 100.613 20.4929C100.902 20.642 101.13 20.8227 101.299 21.0348C101.468 21.2436 101.599 21.4408 101.692 21.6264H101.767V17.8182H103.571V28H101.801V26.7969H101.692C101.599 26.9825 101.465 27.1797 101.289 27.3885C101.114 27.594 100.882 27.7696 100.593 27.9155C100.305 28.0613 99.9421 28.1342 99.5046 28.1342ZM100.007 26.6577C100.388 26.6577 100.713 26.5549 100.981 26.3494C101.25 26.1406 101.453 25.8506 101.593 25.4794C101.732 25.1082 101.801 24.6757 101.801 24.1818C101.801 23.688 101.732 23.2588 101.593 22.8942C101.457 22.5296 101.255 22.2462 100.986 22.044C100.721 21.8419 100.395 21.7408 100.007 21.7408C99.6057 21.7408 99.271 21.8452 99.0025 22.054C98.734 22.2628 98.5318 22.5511 98.396 22.919C98.2601 23.2869 98.1921 23.7079 98.1921 24.1818C98.1921 24.6591 98.2601 25.085 98.396 25.4595C98.5352 25.8307 98.739 26.1241 99.0075 26.3395C99.2792 26.5516 99.6123 26.6577 100.007 26.6577ZM110.356 24.7884V20.3636H112.156V28H110.411V26.6428H110.331C110.159 27.0703 109.876 27.42 109.481 27.6918C109.09 27.9635 108.608 28.0994 108.035 28.0994C107.534 28.0994 107.092 27.9884 106.707 27.7663C106.326 27.541 106.028 27.2145 105.812 26.7869C105.597 26.3561 105.489 25.8357 105.489 25.2259V20.3636H107.289V24.9474C107.289 25.4313 107.421 25.8158 107.687 26.1009C107.952 26.3859 108.3 26.5284 108.731 26.5284C108.996 26.5284 109.253 26.4638 109.501 26.3345C109.75 26.2053 109.954 26.013 110.113 25.7578C110.275 25.4993 110.356 25.1761 110.356 24.7884ZM123.515 22.3821L121.874 22.5611C121.828 22.3954 121.747 22.2396 121.631 22.0938C121.518 21.9479 121.366 21.8303 121.173 21.7408C120.981 21.6513 120.746 21.6065 120.467 21.6065C120.093 21.6065 119.778 21.6877 119.523 21.8501C119.271 22.0125 119.147 22.223 119.15 22.4815C119.147 22.7036 119.228 22.8842 119.393 23.0234C119.563 23.1626 119.841 23.277 120.229 23.3665L121.531 23.6449C122.254 23.8007 122.791 24.0476 123.142 24.3857C123.497 24.7237 123.676 25.1662 123.679 25.7131C123.676 26.1937 123.535 26.6179 123.256 26.9858C122.981 27.3504 122.598 27.6354 122.108 27.8409C121.617 28.0464 121.054 28.1491 120.418 28.1491C119.483 28.1491 118.731 27.9536 118.161 27.5625C117.59 27.1681 117.251 26.6196 117.141 25.9169L118.896 25.7479C118.976 26.0926 119.145 26.3527 119.403 26.5284C119.662 26.7041 119.998 26.7919 120.413 26.7919C120.84 26.7919 121.183 26.7041 121.442 26.5284C121.704 26.3527 121.835 26.1357 121.835 25.8771C121.835 25.6584 121.75 25.4777 121.581 25.3352C121.415 25.1927 121.157 25.0833 120.805 25.0071L119.503 24.7337C118.77 24.5812 118.228 24.3243 117.877 23.9631C117.526 23.5985 117.352 23.1378 117.355 22.581C117.352 22.1103 117.479 21.7027 117.738 21.358C118 21.0099 118.363 20.7415 118.827 20.5526C119.294 20.3603 119.833 20.2642 120.442 20.2642C121.337 20.2642 122.042 20.4548 122.555 20.8359C123.072 21.2171 123.392 21.7325 123.515 22.3821ZM128.494 28.1491C127.732 28.1491 127.077 27.9818 126.53 27.647C125.987 27.3123 125.567 26.8499 125.272 26.2599C124.981 25.6667 124.835 24.9839 124.835 24.2116C124.835 23.4361 124.984 22.7517 125.282 22.1584C125.581 21.5618 126.002 21.0978 126.545 20.7663C127.092 20.4316 127.738 20.2642 128.484 20.2642C129.104 20.2642 129.652 20.3786 130.13 20.6072C130.61 20.8326 130.993 21.1525 131.278 21.5668C131.563 21.9777 131.725 22.4583 131.765 23.0085H130.045C129.975 22.6406 129.81 22.334 129.548 22.0888C129.289 21.8402 128.943 21.7159 128.509 21.7159C128.141 21.7159 127.818 21.8153 127.539 22.0142C127.261 22.2098 127.044 22.4915 126.888 22.8594C126.736 23.2273 126.659 23.6681 126.659 24.1818C126.659 24.7022 126.736 25.1496 126.888 25.5241C127.041 25.8954 127.254 26.1821 127.529 26.3842C127.808 26.5831 128.134 26.6825 128.509 26.6825C128.774 26.6825 129.011 26.6328 129.22 26.5334C129.432 26.4306 129.609 26.2831 129.752 26.0909C129.894 25.8987 129.992 25.665 130.045 25.3899H131.765C131.722 25.9302 131.563 26.4091 131.288 26.8267C131.013 27.241 130.638 27.5658 130.164 27.8011C129.69 28.0331 129.134 28.1491 128.494 28.1491ZM136.574 28.1491C135.828 28.1491 135.182 27.9851 134.635 27.657C134.088 27.3288 133.664 26.8698 133.362 26.2798C133.064 25.6899 132.915 25.0005 132.915 24.2116C132.915 23.4228 133.064 22.7318 133.362 22.1385C133.664 21.5452 134.088 21.0845 134.635 20.7564C135.182 20.4283 135.828 20.2642 136.574 20.2642C137.32 20.2642 137.966 20.4283 138.513 20.7564C139.06 21.0845 139.482 21.5452 139.781 22.1385C140.082 22.7318 140.233 23.4228 140.233 24.2116C140.233 25.0005 140.082 25.6899 139.781 26.2798C139.482 26.8698 139.06 27.3288 138.513 27.657C137.966 27.9851 137.32 28.1491 136.574 28.1491ZM136.584 26.7074C136.988 26.7074 137.326 26.5964 137.598 26.3743C137.87 26.1489 138.072 25.8473 138.205 25.4695C138.341 25.0916 138.409 24.6707 138.409 24.2067C138.409 23.7393 138.341 23.3168 138.205 22.9389C138.072 22.5578 137.87 22.2545 137.598 22.0291C137.326 21.8037 136.988 21.6911 136.584 21.6911C136.17 21.6911 135.825 21.8037 135.55 22.0291C135.278 22.2545 135.074 22.5578 134.938 22.9389C134.806 23.3168 134.74 23.7393 134.74 24.2067C134.74 24.6707 134.806 25.0916 134.938 25.4695C135.074 25.8473 135.278 26.1489 135.55 26.3743C135.825 26.5964 136.17 26.7074 136.584 26.7074ZM141.761 28V20.3636H143.506V21.6364H143.585C143.724 21.1955 143.963 20.8558 144.301 20.6172C144.643 20.3752 145.032 20.2543 145.469 20.2543C145.569 20.2543 145.68 20.2592 145.803 20.2692C145.929 20.2758 146.033 20.2874 146.116 20.304V21.9595C146.04 21.933 145.919 21.9098 145.753 21.8899C145.59 21.8667 145.433 21.8551 145.281 21.8551C144.952 21.8551 144.657 21.9264 144.396 22.0689C144.137 22.2081 143.933 22.402 143.784 22.6506C143.635 22.8991 143.56 23.1858 143.56 23.5107V28H141.761ZM150.378 28.1491C149.612 28.1491 148.951 27.9901 148.394 27.6719C147.84 27.3504 147.415 26.8963 147.116 26.3097C146.818 25.7197 146.669 25.0253 146.669 24.2266C146.669 23.4411 146.818 22.7517 147.116 22.1584C147.418 21.5618 147.839 21.0978 148.379 20.7663C148.919 20.4316 149.554 20.2642 150.283 20.2642C150.754 20.2642 151.198 20.3404 151.616 20.4929C152.037 20.642 152.408 20.8741 152.729 21.1889C153.054 21.5038 153.309 21.9048 153.495 22.392C153.68 22.8759 153.773 23.4527 153.773 24.1222V24.674H147.514V23.4609H152.048C152.045 23.1162 151.97 22.8097 151.824 22.5412C151.679 22.2694 151.475 22.0556 151.213 21.8999C150.954 21.7441 150.653 21.6662 150.308 21.6662C149.94 21.6662 149.617 21.7557 149.339 21.9347C149.06 22.1103 148.843 22.3423 148.687 22.6307C148.535 22.9157 148.457 23.2289 148.454 23.5703V24.6293C148.454 25.0734 148.535 25.4545 148.697 25.7727C148.86 26.0876 149.087 26.3295 149.378 26.4986C149.67 26.6643 150.011 26.7472 150.403 26.7472C150.664 26.7472 150.901 26.7107 151.113 26.6378C151.326 26.5616 151.51 26.4505 151.665 26.3047C151.821 26.1589 151.939 25.9782 152.018 25.7628L153.699 25.9517C153.593 26.3958 153.39 26.7836 153.092 27.1151C152.797 27.4432 152.419 27.6984 151.959 27.8807C151.498 28.0597 150.971 28.1491 150.378 28.1491Z" fill="white"/>
<path opacity="0.3" d="M51 116H402" stroke="white"/>
<path opacity="0.3" d="M51 95H402" stroke="white"/>
<path opacity="0.3" d="M51 74H402" stroke="white"/>
<path opacity="0.3" d="M51 53H402" stroke="white"/>
<path opacity="0.8" d="M59 83.2727L62.5875 86.739C83.7884 107.224 117.657 106.379 137.811 84.8634V84.8634C155.967 65.4801 184.88 60.712 208.299 73.2392L211.915 75.1736C229.633 84.651 250.772 85.2592 269.004 76.8162L276.651 73.2755C307.134 59.1597 342.31 59.3015 372.678 73.6625L393 83.2727" stroke="white" stroke-width="1.5"/>
<path opacity="0.8" d="M23.6406 49V57H22.6719V50.0156H22.625L20.6719 51.3125V50.3281L22.6719 49H23.6406ZM28.5508 57.1094C27.9622 57.1094 27.4609 56.9492 27.0469 56.6289C26.6328 56.306 26.3164 55.8385 26.0977 55.2266C25.8789 54.612 25.7695 53.8698 25.7695 53C25.7695 52.1354 25.8789 51.3971 26.0977 50.7852C26.319 50.1706 26.6367 49.7018 27.0508 49.3789C27.4674 49.0534 27.9674 48.8906 28.5508 48.8906C29.1341 48.8906 29.6328 49.0534 30.0469 49.3789C30.4635 49.7018 30.7813 50.1706 31 50.7852C31.2214 51.3971 31.332 52.1354 31.332 53C31.332 53.8698 31.2227 54.612 31.0039 55.2266C30.7852 55.8385 30.4687 56.306 30.0547 56.6289C29.6406 56.9492 29.1393 57.1094 28.5508 57.1094ZM28.5508 56.25C29.1341 56.25 29.5872 55.9687 29.9102 55.4062C30.2331 54.8437 30.3945 54.0417 30.3945 53C30.3945 52.3073 30.3203 51.7174 30.1719 51.2305C30.026 50.7435 29.8151 50.3724 29.5391 50.1172C29.2656 49.862 28.9362 49.7344 28.5508 49.7344C27.9727 49.7344 27.5208 50.0195 27.1953 50.5898C26.8698 51.1576 26.707 51.9609 26.707 53C26.707 53.6927 26.7799 54.2812 26.9258 54.7656C27.0716 55.25 27.2813 55.6185 27.5547 55.8711C27.8307 56.1237 28.1628 56.25 28.5508 56.25ZM35.4258 57.1094C34.8372 57.1094 34.3359 56.9492 33.9219 56.6289C33.5078 56.306 33.1914 55.8385 32.9727 55.2266C32.7539 54.612 32.6445 53.8698 32.6445 53C32.6445 52.1354 32.7539 51.3971 32.9727 50.7852C33.194 50.1706 33.5117 49.7018 33.9258 49.3789C34.3424 49.0534 34.8424 48.8906 35.4258 48.8906C36.0091 48.8906 36.5078 49.0534 36.9219 49.3789C37.3385 49.7018 37.6563 50.1706 37.875 50.7852C38.0964 51.3971 38.207 52.1354 38.207 53C38.207 53.8698 38.0977 54.612 37.8789 55.2266C37.6602 55.8385 37.3437 56.306 36.9297 56.6289C36.5156 56.9492 36.0143 57.1094 35.4258 57.1094ZM35.4258 56.25C36.0091 56.25 36.4622 55.9687 36.7852 55.4062C37.1081 54.8437 37.2695 54.0417 37.2695 53C37.2695 52.3073 37.1953 51.7174 37.0469 51.2305C36.901 50.7435 36.6901 50.3724 36.4141 50.1172C36.1406 49.862 35.8112 49.7344 35.4258 49.7344C34.8477 49.7344 34.3958 50.0195 34.0703 50.5898C33.7448 51.1576 33.582 51.9609 33.582 53C33.582 53.6927 33.6549 54.2812 33.8008 54.7656C33.9466 55.25 34.1563 55.6185 34.4297 55.8711C34.7057 56.1237 35.0378 56.25 35.4258 56.25Z" fill="white"/>
<path opacity="0.8" d="M27.209 78L30.7871 70.9219V70.8594H26.6621V70H31.7871V70.9062L28.2246 78H27.209ZM35.6357 78.1094C35.1774 78.1094 34.7646 78.0182 34.3975 77.8359C34.0303 77.6536 33.736 77.4036 33.5146 77.0859C33.2933 76.7682 33.1722 76.4062 33.1514 76H34.0889C34.1253 76.362 34.2894 76.6615 34.5811 76.8984C34.8753 77.1328 35.2269 77.25 35.6357 77.25C35.9639 77.25 36.2555 77.1732 36.5107 77.0195C36.7686 76.8659 36.9704 76.6549 37.1162 76.3867C37.2646 76.1159 37.3389 75.8099 37.3389 75.4687C37.3389 75.1198 37.262 74.8086 37.1084 74.5352C36.9574 74.2591 36.749 74.0417 36.4834 73.8828C36.2178 73.724 35.9144 73.6432 35.5732 73.6406C35.3285 73.638 35.0771 73.6758 34.8193 73.7539C34.5615 73.8294 34.3493 73.9271 34.1826 74.0469L33.2764 73.9375L33.7607 70H37.917V70.8594H34.5732L34.292 73.2187H34.3389C34.5029 73.0885 34.7087 72.9805 34.9561 72.8945C35.2035 72.8086 35.4613 72.7656 35.7295 72.7656C36.2191 72.7656 36.6553 72.8828 37.0381 73.1172C37.4235 73.349 37.7256 73.6667 37.9443 74.0703C38.1657 74.474 38.2764 74.9349 38.2764 75.4531C38.2764 75.9635 38.1618 76.4193 37.9326 76.8203C37.7061 77.2187 37.3936 77.5339 36.9951 77.7656C36.5967 77.9948 36.1436 78.1094 35.6357 78.1094Z" fill="white"/>
<path opacity="0.8" d="M28.7607 99.1094C28.3024 99.1094 27.8896 99.0182 27.5225 98.8359C27.1553 98.6536 26.861 98.4036 26.6396 98.0859C26.4183 97.7682 26.2972 97.4062 26.2764 97H27.2139C27.2503 97.362 27.4144 97.6615 27.7061 97.8984C28.0003 98.1328 28.3519 98.25 28.7607 98.25C29.0889 98.25 29.3805 98.1732 29.6357 98.0195C29.8936 97.8659 30.0954 97.6549 30.2412 97.3867C30.3896 97.1159 30.4639 96.8099 30.4639 96.4687C30.4639 96.1198 30.387 95.8086 30.2334 95.5352C30.0824 95.2591 29.874 95.0417 29.6084 94.8828C29.3428 94.724 29.0394 94.6432 28.6982 94.6406C28.4535 94.638 28.2021 94.6758 27.9443 94.7539C27.6865 94.8294 27.4743 94.9271 27.3076 95.0469L26.4014 94.9375L26.8857 91H31.042V91.8594H27.6982L27.417 94.2187H27.4639C27.6279 94.0885 27.8337 93.9805 28.0811 93.8945C28.3285 93.8086 28.5863 93.7656 28.8545 93.7656C29.3441 93.7656 29.7803 93.8828 30.1631 94.1172C30.5485 94.349 30.8506 94.6667 31.0693 95.0703C31.2907 95.474 31.4014 95.9349 31.4014 96.4531C31.4014 96.9635 31.2868 97.4193 31.0576 97.8203C30.8311 98.2187 30.5186 98.5339 30.1201 98.7656C29.7217 98.9948 29.2686 99.1094 28.7607 99.1094ZM35.5625 99.1094C34.974 99.1094 34.4727 98.9492 34.0586 98.6289C33.6445 98.306 33.3281 97.8385 33.1094 97.2266C32.8906 96.612 32.7813 95.8698 32.7813 95C32.7813 94.1354 32.8906 93.3971 33.1094 92.7852C33.3307 92.1706 33.6484 91.7018 34.0625 91.3789C34.4792 91.0534 34.9792 90.8906 35.5625 90.8906C36.1458 90.8906 36.6445 91.0534 37.0586 91.3789C37.4753 91.7018 37.793 92.1706 38.0117 92.7852C38.2331 93.3971 38.3438 94.1354 38.3438 95C38.3438 95.8698 38.2344 96.612 38.0156 97.2266C37.7969 97.8385 37.4805 98.306 37.0664 98.6289C36.6523 98.9492 36.151 99.1094 35.5625 99.1094ZM35.5625 98.25C36.1458 98.25 36.599 97.9687 36.9219 97.4062C37.2448 96.8437 37.4063 96.0417 37.4063 95C37.4063 94.3073 37.332 93.7174 37.1836 93.2305C37.0378 92.7435 36.8268 92.3724 36.5508 92.1172C36.2773 91.862 35.9479 91.7344 35.5625 91.7344C34.9844 91.7344 34.5326 92.0195 34.207 92.5898C33.8815 93.1576 33.7188 93.9609 33.7188 95C33.7188 95.6927 33.7917 96.2812 33.9375 96.7656C34.0833 97.25 34.293 97.6185 34.5664 97.8711C34.8424 98.1237 35.1745 98.25 35.5625 98.25Z" fill="white"/>
<path opacity="0.8" d="M26.4756 120V119.297L29.1162 116.406C29.4261 116.068 29.6813 115.773 29.8818 115.523C30.0824 115.271 30.2308 115.034 30.3271 114.812C30.4261 114.589 30.4756 114.354 30.4756 114.109C30.4756 113.828 30.4079 113.585 30.2725 113.379C30.1396 113.173 29.9574 113.014 29.7256 112.902C29.4938 112.79 29.2334 112.734 28.9443 112.734C28.637 112.734 28.3688 112.798 28.1396 112.926C27.9131 113.051 27.7373 113.227 27.6123 113.453C27.4899 113.68 27.4287 113.945 27.4287 114.25H26.5068C26.5068 113.781 26.6149 113.37 26.8311 113.016C27.0472 112.661 27.3415 112.385 27.7139 112.187C28.0889 111.99 28.5094 111.891 28.9756 111.891C29.4443 111.891 29.8597 111.99 30.2217 112.187C30.5837 112.385 30.8675 112.652 31.0732 112.988C31.279 113.324 31.3818 113.698 31.3818 114.109C31.3818 114.404 31.3285 114.691 31.2217 114.973C31.1175 115.251 30.9352 115.562 30.6748 115.906C30.417 116.247 30.0589 116.664 29.6006 117.156L27.8037 119.078V119.141H31.5225V120H26.4756ZM35.6357 120.109C35.1774 120.109 34.7646 120.018 34.3975 119.836C34.0303 119.654 33.736 119.404 33.5146 119.086C33.2933 118.768 33.1722 118.406 33.1514 118H34.0889C34.1253 118.362 34.2894 118.661 34.5811 118.898C34.8753 119.133 35.2269 119.25 35.6357 119.25C35.9639 119.25 36.2555 119.173 36.5107 119.02C36.7686 118.866 36.9704 118.655 37.1162 118.387C37.2646 118.116 37.3389 117.81 37.3389 117.469C37.3389 117.12 37.262 116.809 37.1084 116.535C36.9574 116.259 36.749 116.042 36.4834 115.883C36.2178 115.724 35.9144 115.643 35.5732 115.641C35.3285 115.638 35.0771 115.676 34.8193 115.754C34.5615 115.829 34.3493 115.927 34.1826 116.047L33.2764 115.937L33.7607 112H37.917V112.859H34.5732L34.292 115.219H34.3389C34.5029 115.089 34.7087 114.98 34.9561 114.895C35.2035 114.809 35.4613 114.766 35.7295 114.766C36.2191 114.766 36.6553 114.883 37.0381 115.117C37.4235 115.349 37.7256 115.667 37.9443 116.07C38.1657 116.474 38.2764 116.935 38.2764 117.453C38.2764 117.964 38.1618 118.419 37.9326 118.82C37.7061 119.219 37.3936 119.534 36.9951 119.766C36.5967 119.995 36.1436 120.109 35.6357 120.109Z" fill="white"/>
<rect opacity="0.8" x="287" y="22" width="69" height="6" rx="3" fill="white"/>
<rect opacity="0.4" x="361" y="22" width="41" height="6" rx="3" fill="white"/>
</g>
<defs>
<filter id="filter0_d_5312_21189" x="0" y="0" width="424" height="145" filterUnits="userSpaceOnUse" color-interpolation-filters="sRGB">
<feFlood flood-opacity="0" result="BackgroundImageFix"/>
<feColorMatrix in="SourceAlpha" type="matrix" values="0 0 0 0 0 0 0 0 0 0 0 0 0 0 0 0 0 0 127 0" result="hardAlpha"/>
<feOffset dy="4"/>
<feGaussianBlur stdDeviation="6"/>
<feComposite in2="hardAlpha" operator="out"/>
<feColorMatrix type="matrix" values="0 0 0 0 0.235294 0 0 0 0 0.0784314 0 0 0 0 0.254902 0 0 0 0.08 0"/>
<feBlend mode="normal" in2="BackgroundImageFix" result="effect1_dropShadow_5312_21189"/>
<feBlend mode="normal" in="SourceGraphic" in2="effect1_dropShadow_5312_21189" result="shape"/>
</filter>
</defs>
</svg>
