<svg width="424" height="84" viewBox="0 0 424 84" fill="none" xmlns="http://www.w3.org/2000/svg">
<g filter="url(#filter0_d_5312_21179)">
<rect x="12" y="8" width="128" height="60" rx="4" fill="#3C1441" fill-opacity="0.4" shape-rendering="crispEdges"/>
<rect x="12.5" y="8.5" width="127" height="59" rx="3.5" stroke="#3C1441" stroke-opacity="0.4" shape-rendering="crispEdges"/>
<path opacity="0.8" d="M65.6367 21.1992C65.6003 20.8581 65.4466 20.5924 65.1758 20.4023C64.9076 20.2122 64.5586 20.1172 64.1289 20.1172C63.8268 20.1172 63.5677 20.1628 63.3516 20.2539C63.1354 20.3451 62.9701 20.4687 62.8555 20.625C62.7409 20.7812 62.6823 20.9596 62.6797 21.1602C62.6797 21.3268 62.7174 21.4714 62.793 21.5937C62.8711 21.7161 62.9766 21.8203 63.1094 21.9062C63.2422 21.9896 63.3893 22.0599 63.5508 22.1172C63.7122 22.1745 63.875 22.2227 64.0391 22.2617L64.7891 22.4492C65.0911 22.5195 65.3815 22.6146 65.6602 22.7344C65.9414 22.8542 66.1927 23.0052 66.4141 23.1875C66.638 23.3698 66.8151 23.5898 66.9453 23.8477C67.0755 24.1055 67.1406 24.4076 67.1406 24.7539C67.1406 25.2227 67.0208 25.6354 66.7813 25.9922C66.5417 26.3464 66.1953 26.6237 65.7422 26.8242C65.2917 27.0221 64.7461 27.1211 64.1055 27.1211C63.4831 27.1211 62.9427 27.0247 62.4844 26.832C62.0286 26.6393 61.6719 26.3581 61.4141 25.9883C61.1589 25.6185 61.0208 25.168 61 24.6367H62.4258C62.4466 24.9154 62.5326 25.1471 62.6836 25.332C62.8346 25.5169 63.0313 25.6549 63.2734 25.7461C63.5182 25.8372 63.7917 25.8828 64.0938 25.8828C64.4089 25.8828 64.6849 25.8359 64.9219 25.7422C65.1615 25.6458 65.349 25.513 65.4844 25.3437C65.6198 25.1719 65.6888 24.9714 65.6914 24.7422C65.6888 24.5339 65.6276 24.362 65.5078 24.2266C65.388 24.0885 65.2201 23.974 65.0039 23.8828C64.7904 23.7891 64.5404 23.7057 64.2539 23.6328L63.3438 23.3984C62.6849 23.2292 62.1641 22.9727 61.7813 22.6289C61.401 22.2826 61.2109 21.8229 61.2109 21.25C61.2109 20.7786 61.3385 20.3659 61.5938 20.0117C61.8516 19.6576 62.2018 19.3828 62.6445 19.1875C63.0872 18.9896 63.5885 18.8906 64.1484 18.8906C64.7161 18.8906 65.2135 18.9896 65.6406 19.1875C66.0703 19.3828 66.4076 19.6549 66.6523 20.0039C66.8971 20.3503 67.0234 20.7487 67.0312 21.1992H65.6367ZM70.9873 27.1172C70.3883 27.1172 69.874 26.9857 69.4443 26.7227C69.0173 26.4596 68.6878 26.0964 68.4561 25.6328C68.2269 25.1667 68.1123 24.6302 68.1123 24.0234C68.1123 23.4141 68.2295 22.8763 68.4639 22.4102C68.6982 21.9414 69.029 21.5768 69.4561 21.3164C69.8857 21.0534 70.3936 20.9219 70.9795 20.9219C71.4665 20.9219 71.8975 21.0117 72.2725 21.1914C72.6501 21.3685 72.9508 21.6198 73.1748 21.9453C73.3988 22.2682 73.5264 22.6458 73.5576 23.0781H72.2061C72.1514 22.7891 72.0212 22.5482 71.8154 22.3555C71.6123 22.1602 71.3402 22.0625 70.999 22.0625C70.71 22.0625 70.4561 22.1406 70.2373 22.2969C70.0186 22.4505 69.848 22.6719 69.7256 22.9609C69.6058 23.25 69.5459 23.5964 69.5459 24C69.5459 24.4089 69.6058 24.7604 69.7256 25.0547C69.8454 25.3464 70.0133 25.5716 70.2295 25.7305C70.4482 25.8867 70.7048 25.9648 70.999 25.9648C71.2074 25.9648 71.3936 25.9258 71.5576 25.8477C71.7243 25.7669 71.8636 25.651 71.9756 25.5C72.0876 25.349 72.1644 25.1654 72.2061 24.9492H73.5576C73.5238 25.3737 73.3988 25.75 73.1826 26.0781C72.9665 26.4036 72.6722 26.6589 72.2998 26.8437C71.9274 27.026 71.4899 27.1172 70.9873 27.1172ZM77.3359 27.1172C76.75 27.1172 76.2422 26.9883 75.8125 26.7305C75.3828 26.4727 75.0495 26.112 74.8125 25.6484C74.5781 25.1849 74.4609 24.6432 74.4609 24.0234C74.4609 23.4036 74.5781 22.8607 74.8125 22.3945C75.0495 21.9284 75.3828 21.5664 75.8125 21.3086C76.2422 21.0508 76.75 20.9219 77.3359 20.9219C77.9219 20.9219 78.4297 21.0508 78.8594 21.3086C79.2891 21.5664 79.6211 21.9284 79.8555 22.3945C80.0924 22.8607 80.2109 23.4036 80.2109 24.0234C80.2109 24.6432 80.0924 25.1849 79.8555 25.6484C79.6211 26.112 79.2891 26.4727 78.8594 26.7305C78.4297 26.9883 77.9219 27.1172 77.3359 27.1172ZM77.3438 25.9844C77.6615 25.9844 77.9271 25.8971 78.1406 25.7227C78.3542 25.5456 78.513 25.3086 78.6172 25.0117C78.724 24.7148 78.7773 24.3841 78.7773 24.0195C78.7773 23.6523 78.724 23.3203 78.6172 23.0234C78.513 22.724 78.3542 22.4857 78.1406 22.3086C77.9271 22.1315 77.6615 22.043 77.3438 22.043C77.0182 22.043 76.7474 22.1315 76.5313 22.3086C76.3177 22.4857 76.1576 22.724 76.0508 23.0234C75.9466 23.3203 75.8945 23.6523 75.8945 24.0195C75.8945 24.3841 75.9466 24.7148 76.0508 25.0117C76.1576 25.3086 76.3177 25.5456 76.5313 25.7227C76.7474 25.8971 77.0182 25.9844 77.3438 25.9844ZM81.4111 27V21H82.7822V22H82.8447C82.9541 21.6536 83.1416 21.3867 83.4072 21.1992C83.6755 21.0091 83.9814 20.9141 84.3252 20.9141C84.4033 20.9141 84.4906 20.918 84.5869 20.9258C84.6859 20.931 84.7679 20.9401 84.833 20.9531V22.2539C84.7731 22.2331 84.6781 22.2148 84.5479 22.1992C84.4202 22.181 84.2965 22.1719 84.1768 22.1719C83.9189 22.1719 83.6872 22.2279 83.4814 22.3398C83.2783 22.4492 83.1182 22.6016 83.001 22.7969C82.8838 22.9922 82.8252 23.2174 82.8252 23.4727V27H81.4111ZM88.1816 27.1172C87.5801 27.1172 87.0605 26.9922 86.623 26.7422C86.1882 26.4896 85.8535 26.1328 85.6191 25.6719C85.3848 25.2083 85.2676 24.6628 85.2676 24.0352C85.2676 23.418 85.3848 22.8763 85.6191 22.4102C85.8561 21.9414 86.1868 21.5768 86.6113 21.3164C87.0358 21.0534 87.5345 20.9219 88.1074 20.9219C88.4772 20.9219 88.8262 20.9818 89.1543 21.1016C89.485 21.2187 89.7767 21.401 90.0293 21.6484C90.2845 21.8958 90.485 22.2109 90.6309 22.5937C90.7767 22.974 90.8496 23.4271 90.8496 23.9531V24.3867H85.9316V23.4336H89.4941C89.4915 23.1628 89.4329 22.9219 89.3184 22.7109C89.2038 22.4974 89.0436 22.3294 88.8379 22.207C88.6348 22.0846 88.3978 22.0234 88.127 22.0234C87.8379 22.0234 87.584 22.0937 87.3652 22.2344C87.1465 22.3724 86.9759 22.5547 86.8535 22.7812C86.7337 23.0052 86.6725 23.2513 86.6699 23.5195V24.3516C86.6699 24.7005 86.7337 25 86.8613 25.25C86.9889 25.4974 87.1673 25.6875 87.3965 25.8203C87.6257 25.9505 87.8939 26.0156 88.2012 26.0156C88.4069 26.0156 88.5931 25.987 88.7598 25.9297C88.9264 25.8698 89.071 25.7826 89.1934 25.668C89.3158 25.5534 89.4082 25.4115 89.4707 25.2422L90.791 25.3906C90.7077 25.7396 90.5488 26.0443 90.3145 26.3047C90.0827 26.5625 89.7858 26.763 89.4238 26.9062C89.0618 27.0469 88.6478 27.1172 88.1816 27.1172Z" fill="#3C1441"/>
<path d="M51.1921 40.064C49.8641 41.456 48.7681 42.816 47.9041 44.144C47.0401 45.456 46.3761 46.896 45.9121 48.464C45.4481 50.032 45.2161 51.792 45.2161 53.744C45.2161 54.544 45.2481 55.296 45.3121 56H43.0081C42.9601 55.296 42.9361 54.616 42.9361 53.96C42.9361 51.08 43.4321 48.512 44.4241 46.256C45.4161 44 46.8561 41.936 48.7441 40.064H39.1681V38.048H51.1921V40.064ZM58.7324 56.288C57.6284 56.288 56.6204 56.072 55.7084 55.64C54.8124 55.192 54.1004 54.576 53.5724 53.792C53.0604 53.008 52.8044 52.136 52.8044 51.176C52.8044 50.136 53.1164 49.224 53.7404 48.44C54.3804 47.64 55.2444 47.112 56.3324 46.856C55.3084 46.584 54.5004 46.064 53.9084 45.296C53.3324 44.528 53.0444 43.648 53.0444 42.656C53.0444 41.744 53.2924 40.912 53.7884 40.16C54.2844 39.408 54.9644 38.824 55.8284 38.408C56.6924 37.976 57.6604 37.76 58.7324 37.76C59.8044 37.76 60.7724 37.976 61.6364 38.408C62.5004 38.824 63.1804 39.408 63.6764 40.16C64.1724 40.912 64.4204 41.744 64.4204 42.656C64.4204 43.648 64.1244 44.536 63.5324 45.32C62.9564 46.088 62.1644 46.6 61.1564 46.856C62.2444 47.112 63.1004 47.64 63.7244 48.44C64.3644 49.24 64.6844 50.152 64.6844 51.176C64.6844 52.152 64.4204 53.032 63.8924 53.816C63.3804 54.584 62.6684 55.192 61.7564 55.64C60.8604 56.072 59.8524 56.288 58.7324 56.288ZM55.1084 51.008C55.1084 51.92 55.4444 52.68 56.1164 53.288C56.8044 53.896 57.6764 54.2 58.7324 54.2C59.7884 54.2 60.6604 53.896 61.3484 53.288C62.0364 52.68 62.3804 51.92 62.3804 51.008C62.3804 50.128 62.0524 49.384 61.3964 48.776C60.7404 48.168 59.8524 47.864 58.7324 47.864C57.6124 47.864 56.7244 48.168 56.0684 48.776C55.4284 49.368 55.1084 50.112 55.1084 51.008ZM55.3004 42.8C55.3004 43.632 55.6044 44.336 56.2124 44.912C56.8364 45.488 57.6764 45.776 58.7324 45.776C59.7884 45.776 60.6284 45.488 61.2524 44.912C61.8764 44.336 62.1884 43.632 62.1884 42.8C62.1884 41.952 61.8604 41.248 61.2044 40.688C60.5484 40.112 59.7244 39.824 58.7324 39.824C57.7564 39.824 56.9404 40.112 56.2844 40.688C55.6284 41.248 55.3004 41.952 55.3004 42.8ZM65.7668 56L70.2068 38.048H72.3428L67.8788 56H65.7668ZM80.0153 38.048V56H77.7353V42.416C77.4473 42.8 77.0713 43.056 76.6073 43.184C76.1593 43.296 75.4473 43.352 74.4713 43.352H73.1753V41.336H74.4713C75.3513 41.336 76.0233 41.24 76.4873 41.048C76.9513 40.856 77.2793 40.528 77.4713 40.064C77.6793 39.6 77.8073 38.928 77.8553 38.048H80.0153ZM90.0338 37.76C91.3138 37.76 92.4178 38.136 93.3458 38.888C94.2898 39.624 95.0098 40.688 95.5058 42.08C96.0018 43.472 96.2498 45.128 96.2498 47.048C96.2498 48.968 96.0018 50.624 95.5058 52.016C95.0098 53.392 94.2898 54.448 93.3458 55.184C92.4178 55.92 91.3138 56.288 90.0338 56.288C88.7538 56.288 87.6418 55.92 86.6978 55.184C85.7698 54.448 85.0578 53.392 84.5618 52.016C84.0658 50.624 83.8178 48.968 83.8178 47.048C83.8178 45.112 84.0658 43.448 84.5618 42.056C85.0578 40.664 85.7698 39.6 86.6978 38.864C87.6258 38.128 88.7378 37.76 90.0338 37.76ZM86.1218 47.048C86.1218 49.384 86.4578 51.168 87.1298 52.4C87.8178 53.616 88.7858 54.224 90.0338 54.224C91.2818 54.224 92.2418 53.608 92.9138 52.376C93.5858 51.144 93.9218 49.368 93.9218 47.048C93.9218 44.696 93.5858 42.904 92.9138 41.672C92.2418 40.44 91.2818 39.824 90.0338 39.824C88.7858 39.824 87.8178 40.44 87.1298 41.672C86.4578 42.904 86.1218 44.696 86.1218 47.048ZM105.573 37.76C106.853 37.76 107.957 38.136 108.885 38.888C109.829 39.624 110.549 40.688 111.045 42.08C111.541 43.472 111.789 45.128 111.789 47.048C111.789 48.968 111.541 50.624 111.045 52.016C110.549 53.392 109.829 54.448 108.885 55.184C107.957 55.92 106.853 56.288 105.573 56.288C104.293 56.288 103.181 55.92 102.237 55.184C101.309 54.448 100.597 53.392 100.101 52.016C99.6049 50.624 99.3569 48.968 99.3569 47.048C99.3569 45.112 99.6049 43.448 100.101 42.056C100.597 40.664 101.309 39.6 102.237 38.864C103.165 38.128 104.277 37.76 105.573 37.76ZM101.661 47.048C101.661 49.384 101.997 51.168 102.669 52.4C103.357 53.616 104.325 54.224 105.573 54.224C106.821 54.224 107.781 53.608 108.453 52.376C109.125 51.144 109.461 49.368 109.461 47.048C109.461 44.696 109.125 42.904 108.453 41.672C107.781 40.44 106.821 39.824 105.573 39.824C104.325 39.824 103.357 40.44 102.669 41.672C101.997 42.904 101.661 44.696 101.661 47.048Z" fill="#3C1441"/>
</g>
<g filter="url(#filter1_d_5312_21179)">
<rect x="148" y="8" width="128" height="60" rx="4" fill="#3C1441" fill-opacity="0.1" shape-rendering="crispEdges"/>
<rect x="148.5" y="8.5" width="127" height="59" rx="3.5" stroke="#3C1441" stroke-opacity="0.4" shape-rendering="crispEdges"/>
<path opacity="0.8" d="M174.359 19L176.441 25.2969H176.523L178.602 19H180.195L177.375 27H175.586L172.77 19H174.359ZM185.011 24.4766V21H186.425V27H185.054V25.9336H184.991C184.856 26.2695 184.633 26.5443 184.323 26.7578C184.016 26.9714 183.637 27.0781 183.187 27.0781C182.793 27.0781 182.446 26.9909 182.144 26.8164C181.844 26.6393 181.61 26.3828 181.44 26.0469C181.271 25.7083 181.187 25.2995 181.187 24.8203V21H182.601V24.6016C182.601 24.9818 182.705 25.2839 182.913 25.5078C183.121 25.7318 183.395 25.8437 183.733 25.8437C183.942 25.8437 184.144 25.793 184.339 25.6914C184.534 25.5898 184.694 25.4388 184.819 25.2383C184.947 25.0352 185.011 24.7812 185.011 24.4766ZM189.293 19V27H187.879V19H189.293ZM192.161 23.4844V27H190.747V21H192.099V22.0195H192.169C192.307 21.6836 192.527 21.4167 192.829 21.2187C193.134 21.0208 193.51 20.9219 193.958 20.9219C194.372 20.9219 194.733 21.0104 195.04 21.1875C195.35 21.3646 195.59 21.6211 195.759 21.957C195.931 22.293 196.015 22.7005 196.013 23.1797V27H194.599V23.3984C194.599 22.9974 194.494 22.6836 194.286 22.457C194.08 22.2305 193.795 22.1172 193.431 22.1172C193.183 22.1172 192.963 22.1719 192.771 22.2812C192.58 22.388 192.431 22.543 192.321 22.7461C192.215 22.9492 192.161 23.1953 192.161 23.4844ZM200.106 27.1172C199.505 27.1172 198.985 26.9922 198.548 26.7422C198.113 26.4896 197.778 26.1328 197.544 25.6719C197.31 25.2083 197.192 24.6628 197.192 24.0352C197.192 23.418 197.31 22.8763 197.544 22.4102C197.781 21.9414 198.112 21.5768 198.536 21.3164C198.961 21.0534 199.459 20.9219 200.032 20.9219C200.402 20.9219 200.751 20.9818 201.079 21.1016C201.41 21.2187 201.701 21.401 201.954 21.6484C202.209 21.8958 202.41 22.2109 202.556 22.5937C202.701 22.974 202.774 23.4271 202.774 23.9531V24.3867H197.856V23.4336H201.419C201.416 23.1628 201.358 22.9219 201.243 22.7109C201.129 22.4974 200.968 22.3294 200.763 22.207C200.56 22.0846 200.323 22.0234 200.052 22.0234C199.763 22.0234 199.509 22.0937 199.29 22.2344C199.071 22.3724 198.901 22.5547 198.778 22.7812C198.659 23.0052 198.597 23.2513 198.595 23.5195V24.3516C198.595 24.7005 198.659 25 198.786 25.25C198.914 25.4974 199.092 25.6875 199.321 25.8203C199.55 25.9505 199.819 26.0156 200.126 26.0156C200.332 26.0156 200.518 25.987 200.685 25.9297C200.851 25.8698 200.996 25.7826 201.118 25.668C201.241 25.5534 201.333 25.4115 201.396 25.2422L202.716 25.3906C202.632 25.7396 202.474 26.0443 202.239 26.3047C202.007 26.5625 201.711 26.763 201.349 26.9062C200.987 27.0469 200.573 27.1172 200.106 27.1172ZM199.45 20.2109L200.325 18.4258H201.708L200.509 20.2109H199.45ZM203.971 27V21H205.342V22H205.404C205.514 21.6536 205.701 21.3867 205.967 21.1992C206.235 21.0091 206.541 20.9141 206.885 20.9141C206.963 20.9141 207.05 20.918 207.146 20.9258C207.245 20.931 207.327 20.9401 207.393 20.9531V22.2539C207.333 22.2331 207.238 22.2148 207.107 22.1992C206.98 22.181 206.856 22.1719 206.736 22.1719C206.479 22.1719 206.247 22.2279 206.041 22.3398C205.838 22.4492 205.678 22.6016 205.561 22.7969C205.443 22.9922 205.385 23.2174 205.385 23.4727V27H203.971ZM209.951 27.1211C209.571 27.1211 209.229 27.0534 208.924 26.918C208.622 26.7799 208.382 26.5768 208.205 26.3086C208.031 26.0404 207.943 25.7096 207.943 25.3164C207.943 24.9779 208.006 24.6979 208.131 24.4766C208.256 24.2552 208.426 24.0781 208.643 23.9453C208.859 23.8125 209.102 23.7122 209.373 23.6445C209.646 23.5742 209.929 23.5234 210.221 23.4922C210.572 23.4557 210.857 23.4232 211.076 23.3945C211.295 23.3633 211.454 23.3164 211.553 23.2539C211.654 23.1888 211.705 23.0885 211.705 22.9531V22.9297C211.705 22.6354 211.618 22.4076 211.443 22.2461C211.269 22.0846 211.018 22.0039 210.689 22.0039C210.343 22.0039 210.068 22.0794 209.865 22.2305C209.665 22.3815 209.529 22.5599 209.459 22.7656L208.139 22.5781C208.243 22.2135 208.415 21.9089 208.654 21.6641C208.894 21.4167 209.187 21.2318 209.533 21.1094C209.88 20.9844 210.262 20.9219 210.682 20.9219C210.971 20.9219 211.258 20.9557 211.545 21.0234C211.831 21.0911 212.093 21.2031 212.33 21.3594C212.567 21.513 212.757 21.7227 212.9 21.9883C213.046 22.2539 213.119 22.5859 213.119 22.9844V27H211.76V26.1758H211.713C211.627 26.3424 211.506 26.4987 211.35 26.6445C211.196 26.7878 211.002 26.9036 210.768 26.9922C210.536 27.0781 210.264 27.1211 209.951 27.1211ZM210.318 26.082C210.602 26.082 210.848 26.026 211.057 25.9141C211.265 25.7995 211.425 25.6484 211.537 25.4609C211.652 25.2734 211.709 25.069 211.709 24.8477V24.1406C211.665 24.1771 211.589 24.2109 211.482 24.2422C211.378 24.2734 211.261 24.3008 211.131 24.3242C211.001 24.3477 210.872 24.3685 210.744 24.3867C210.617 24.4049 210.506 24.4206 210.412 24.4336C210.201 24.4622 210.012 24.5091 209.846 24.5742C209.679 24.6393 209.548 24.7305 209.451 24.8477C209.355 24.9622 209.307 25.1107 209.307 25.293C209.307 25.5534 209.402 25.75 209.592 25.8828C209.782 26.0156 210.024 26.082 210.318 26.082ZM214.604 27V19H216.018V21.9922H216.076C216.149 21.8464 216.252 21.6914 216.385 21.5273C216.518 21.3607 216.697 21.2187 216.924 21.1016C217.15 20.9818 217.439 20.9219 217.791 20.9219C218.255 20.9219 218.673 21.0404 219.045 21.2773C219.42 21.5117 219.717 21.8594 219.936 22.3203C220.157 22.7786 220.268 23.3411 220.268 24.0078C220.268 24.6667 220.16 25.2266 219.943 25.6875C219.727 26.1484 219.433 26.5 219.061 26.7422C218.688 26.9844 218.266 27.1055 217.795 27.1055C217.451 27.1055 217.166 27.0482 216.939 26.9336C216.713 26.819 216.531 26.681 216.393 26.5195C216.257 26.3555 216.152 26.2005 216.076 26.0547H215.994V27H214.604ZM215.99 24C215.99 24.388 216.045 24.7279 216.154 25.0195C216.266 25.3112 216.426 25.5391 216.635 25.7031C216.846 25.8646 217.101 25.9453 217.4 25.9453C217.713 25.9453 217.975 25.862 218.186 25.6953C218.396 25.526 218.555 25.2956 218.662 25.0039C218.771 24.7096 218.826 24.375 218.826 24C218.826 23.6276 218.773 23.2969 218.666 23.0078C218.559 22.7187 218.4 22.4922 218.189 22.3281C217.979 22.1641 217.715 22.082 217.4 22.082C217.098 22.082 216.842 22.1615 216.631 22.3203C216.42 22.4792 216.26 22.7018 216.15 22.9883C216.044 23.2747 215.99 23.612 215.99 24ZM221.47 27V21H222.884V27H221.47ZM222.181 20.1484C221.957 20.1484 221.764 20.0742 221.603 19.9258C221.441 19.7747 221.36 19.5937 221.36 19.3828C221.36 19.1693 221.441 18.9883 221.603 18.8398C221.764 18.6888 221.957 18.6133 222.181 18.6133C222.407 18.6133 222.6 18.6888 222.759 18.8398C222.92 18.9883 223.001 19.1693 223.001 19.3828C223.001 19.5937 222.92 19.7747 222.759 19.9258C222.6 20.0742 222.407 20.1484 222.181 20.1484ZM225.752 19V27H224.338V19H225.752ZM227.206 27V21H228.62V27H227.206ZM227.917 20.1484C227.693 20.1484 227.5 20.0742 227.339 19.9258C227.177 19.7747 227.097 19.5937 227.097 19.3828C227.097 19.1693 227.177 18.9883 227.339 18.8398C227.5 18.6888 227.693 18.6133 227.917 18.6133C228.144 18.6133 228.336 18.6888 228.495 18.8398C228.657 18.9883 228.737 19.1693 228.737 19.3828C228.737 19.5937 228.657 19.7747 228.495 19.9258C228.336 20.0742 228.144 20.1484 227.917 20.1484ZM233.07 21V22.0937H229.621V21H233.07ZM230.473 19.5625H231.887V25.1953C231.887 25.3854 231.915 25.5313 231.973 25.6328C232.033 25.7318 232.111 25.7995 232.207 25.8359C232.303 25.8724 232.41 25.8906 232.527 25.8906C232.616 25.8906 232.697 25.8841 232.77 25.8711C232.845 25.8581 232.902 25.8464 232.941 25.8359L233.18 26.9414C233.104 26.9674 232.996 26.9961 232.855 27.0273C232.717 27.0586 232.548 27.0768 232.348 27.082C231.993 27.0924 231.674 27.0391 231.391 26.9219C231.107 26.8021 230.882 26.6172 230.715 26.3672C230.551 26.1172 230.47 25.8047 230.473 25.4297V19.5625ZM236.845 27.1172C236.243 27.1172 235.724 26.9922 235.286 26.7422C234.851 26.4896 234.517 26.1328 234.282 25.6719C234.048 25.2083 233.931 24.6628 233.931 24.0352C233.931 23.418 234.048 22.8763 234.282 22.4102C234.519 21.9414 234.85 21.5768 235.274 21.3164C235.699 21.0534 236.198 20.9219 236.771 20.9219C237.14 20.9219 237.489 20.9818 237.817 21.1016C238.148 21.2187 238.44 21.401 238.692 21.6484C238.948 21.8958 239.148 22.2109 239.294 22.5937C239.44 22.974 239.513 23.4271 239.513 23.9531V24.3867H234.595V23.4336H238.157C238.155 23.1628 238.096 22.9219 237.981 22.7109C237.867 22.4974 237.707 22.3294 237.501 22.207C237.298 22.0846 237.061 22.0234 236.79 22.0234C236.501 22.0234 236.247 22.0937 236.028 22.2344C235.81 22.3724 235.639 22.5547 235.517 22.7812C235.397 23.0052 235.336 23.2513 235.333 23.5195V24.3516C235.333 24.7005 235.397 25 235.524 25.25C235.652 25.4974 235.83 25.6875 236.06 25.8203C236.289 25.9505 236.557 26.0156 236.864 26.0156C237.07 26.0156 237.256 25.987 237.423 25.9297C237.59 25.8698 237.734 25.7826 237.856 25.668C237.979 25.5534 238.071 25.4115 238.134 25.2422L239.454 25.3906C239.371 25.7396 239.212 26.0443 238.978 26.3047C238.746 26.5625 238.449 26.763 238.087 26.9062C237.725 27.0469 237.311 27.1172 236.845 27.1172ZM236.188 20.2109L237.063 18.4258H238.446L237.247 20.2109H236.188ZM244.527 27H242.98L245.797 19H247.586L250.406 27H248.859L246.723 20.6406H246.66L244.527 27ZM244.578 23.8633H248.797V25.0273H244.578V23.8633Z" fill="#3C1441"/>
<path d="M212.006 37.76C213.286 37.76 214.39 38.136 215.318 38.888C216.262 39.624 216.982 40.688 217.478 42.08C217.974 43.472 218.222 45.128 218.222 47.048C218.222 48.968 217.974 50.624 217.478 52.016C216.982 53.392 216.262 54.448 215.318 55.184C214.39 55.92 213.286 56.288 212.006 56.288C210.726 56.288 209.614 55.92 208.67 55.184C207.742 54.448 207.03 53.392 206.534 52.016C206.038 50.624 205.79 48.968 205.79 47.048C205.79 45.112 206.038 43.448 206.534 42.056C207.03 40.664 207.742 39.6 208.67 38.864C209.598 38.128 210.71 37.76 212.006 37.76ZM208.094 47.048C208.094 49.384 208.43 51.168 209.102 52.4C209.79 53.616 210.758 54.224 212.006 54.224C213.254 54.224 214.214 53.608 214.886 52.376C215.558 51.144 215.894 49.368 215.894 47.048C215.894 44.696 215.558 42.904 214.886 41.672C214.214 40.44 213.254 39.824 212.006 39.824C210.758 39.824 209.79 40.44 209.102 41.672C208.43 42.904 208.094 44.696 208.094 47.048Z" fill="#3C1441"/>
</g>
<g filter="url(#filter2_d_5312_21179)">
<rect x="284" y="8" width="128" height="60" rx="4" fill="#3C1441" fill-opacity="0.1" shape-rendering="crispEdges"/>
<rect x="284.5" y="8.5" width="127" height="59" rx="3.5" stroke="#3C1441" stroke-opacity="0.4" shape-rendering="crispEdges"/>
<path opacity="0.8" d="M310.859 19L312.941 25.2969H313.023L315.102 19H316.695L313.875 27H312.086L309.27 19H310.859ZM321.511 24.4766V21H322.925V27H321.554V25.9336H321.491C321.356 26.2695 321.133 26.5443 320.823 26.7578C320.516 26.9714 320.137 27.0781 319.687 27.0781C319.293 27.0781 318.946 26.9909 318.644 26.8164C318.344 26.6393 318.11 26.3828 317.94 26.0469C317.771 25.7083 317.687 25.2995 317.687 24.8203V21H319.101V24.6016C319.101 24.9818 319.205 25.2839 319.413 25.5078C319.621 25.7318 319.895 25.8437 320.233 25.8437C320.442 25.8437 320.644 25.793 320.839 25.6914C321.034 25.5898 321.194 25.4388 321.319 25.2383C321.447 25.0352 321.511 24.7812 321.511 24.4766ZM325.793 19V27H324.379V19H325.793ZM328.661 23.4844V27H327.247V21H328.599V22.0195H328.669C328.807 21.6836 329.027 21.4167 329.329 21.2187C329.634 21.0208 330.01 20.9219 330.458 20.9219C330.872 20.9219 331.233 21.0104 331.54 21.1875C331.85 21.3646 332.09 21.6211 332.259 21.957C332.431 22.293 332.515 22.7005 332.513 23.1797V27H331.099V23.3984C331.099 22.9974 330.994 22.6836 330.786 22.457C330.58 22.2305 330.295 22.1172 329.931 22.1172C329.683 22.1172 329.463 22.1719 329.271 22.2812C329.08 22.388 328.931 22.543 328.821 22.7461C328.715 22.9492 328.661 23.1953 328.661 23.4844ZM336.606 27.1172C336.005 27.1172 335.485 26.9922 335.048 26.7422C334.613 26.4896 334.278 26.1328 334.044 25.6719C333.81 25.2083 333.692 24.6628 333.692 24.0352C333.692 23.418 333.81 22.8763 334.044 22.4102C334.281 21.9414 334.612 21.5768 335.036 21.3164C335.461 21.0534 335.959 20.9219 336.532 20.9219C336.902 20.9219 337.251 20.9818 337.579 21.1016C337.91 21.2187 338.201 21.401 338.454 21.6484C338.709 21.8958 338.91 22.2109 339.056 22.5937C339.201 22.974 339.274 23.4271 339.274 23.9531V24.3867H334.356V23.4336H337.919C337.916 23.1628 337.858 22.9219 337.743 22.7109C337.629 22.4974 337.468 22.3294 337.263 22.207C337.06 22.0846 336.823 22.0234 336.552 22.0234C336.263 22.0234 336.009 22.0937 335.79 22.2344C335.571 22.3724 335.401 22.5547 335.278 22.7812C335.159 23.0052 335.097 23.2513 335.095 23.5195V24.3516C335.095 24.7005 335.159 25 335.286 25.25C335.414 25.4974 335.592 25.6875 335.821 25.8203C336.05 25.9505 336.319 26.0156 336.626 26.0156C336.832 26.0156 337.018 25.987 337.185 25.9297C337.351 25.8698 337.496 25.7826 337.618 25.668C337.741 25.5534 337.833 25.4115 337.896 25.2422L339.216 25.3906C339.132 25.7396 338.974 26.0443 338.739 26.3047C338.507 26.5625 338.211 26.763 337.849 26.9062C337.487 27.0469 337.073 27.1172 336.606 27.1172ZM335.95 20.2109L336.825 18.4258H338.208L337.009 20.2109H335.95ZM340.471 27V21H341.842V22H341.904C342.014 21.6536 342.201 21.3867 342.467 21.1992C342.735 21.0091 343.041 20.9141 343.385 20.9141C343.463 20.9141 343.55 20.918 343.646 20.9258C343.745 20.931 343.827 20.9401 343.893 20.9531V22.2539C343.833 22.2331 343.738 22.2148 343.607 22.1992C343.48 22.181 343.356 22.1719 343.236 22.1719C342.979 22.1719 342.747 22.2279 342.541 22.3398C342.338 22.4492 342.178 22.6016 342.061 22.7969C341.943 22.9922 341.885 23.2174 341.885 23.4727V27H340.471ZM346.451 27.1211C346.071 27.1211 345.729 27.0534 345.424 26.918C345.122 26.7799 344.882 26.5768 344.705 26.3086C344.531 26.0404 344.443 25.7096 344.443 25.3164C344.443 24.9779 344.506 24.6979 344.631 24.4766C344.756 24.2552 344.926 24.0781 345.143 23.9453C345.359 23.8125 345.602 23.7122 345.873 23.6445C346.146 23.5742 346.429 23.5234 346.721 23.4922C347.072 23.4557 347.357 23.4232 347.576 23.3945C347.795 23.3633 347.954 23.3164 348.053 23.2539C348.154 23.1888 348.205 23.0885 348.205 22.9531V22.9297C348.205 22.6354 348.118 22.4076 347.943 22.2461C347.769 22.0846 347.518 22.0039 347.189 22.0039C346.843 22.0039 346.568 22.0794 346.365 22.2305C346.165 22.3815 346.029 22.5599 345.959 22.7656L344.639 22.5781C344.743 22.2135 344.915 21.9089 345.154 21.6641C345.394 21.4167 345.687 21.2318 346.033 21.1094C346.38 20.9844 346.762 20.9219 347.182 20.9219C347.471 20.9219 347.758 20.9557 348.045 21.0234C348.331 21.0911 348.593 21.2031 348.83 21.3594C349.067 21.513 349.257 21.7227 349.4 21.9883C349.546 22.2539 349.619 22.5859 349.619 22.9844V27H348.26V26.1758H348.213C348.127 26.3424 348.006 26.4987 347.85 26.6445C347.696 26.7878 347.502 26.9036 347.268 26.9922C347.036 27.0781 346.764 27.1211 346.451 27.1211ZM346.818 26.082C347.102 26.082 347.348 26.026 347.557 25.9141C347.765 25.7995 347.925 25.6484 348.037 25.4609C348.152 25.2734 348.209 25.069 348.209 24.8477V24.1406C348.165 24.1771 348.089 24.2109 347.982 24.2422C347.878 24.2734 347.761 24.3008 347.631 24.3242C347.501 24.3477 347.372 24.3685 347.244 24.3867C347.117 24.4049 347.006 24.4206 346.912 24.4336C346.701 24.4622 346.512 24.5091 346.346 24.5742C346.179 24.6393 346.048 24.7305 345.951 24.8477C345.855 24.9622 345.807 25.1107 345.807 25.293C345.807 25.5534 345.902 25.75 346.092 25.8828C346.282 26.0156 346.524 26.082 346.818 26.082ZM351.104 27V19H352.518V21.9922H352.576C352.649 21.8464 352.752 21.6914 352.885 21.5273C353.018 21.3607 353.197 21.2187 353.424 21.1016C353.65 20.9818 353.939 20.9219 354.291 20.9219C354.755 20.9219 355.173 21.0404 355.545 21.2773C355.92 21.5117 356.217 21.8594 356.436 22.3203C356.657 22.7786 356.768 23.3411 356.768 24.0078C356.768 24.6667 356.66 25.2266 356.443 25.6875C356.227 26.1484 355.933 26.5 355.561 26.7422C355.188 26.9844 354.766 27.1055 354.295 27.1055C353.951 27.1055 353.666 27.0482 353.439 26.9336C353.213 26.819 353.031 26.681 352.893 26.5195C352.757 26.3555 352.652 26.2005 352.576 26.0547H352.494V27H351.104ZM352.49 24C352.49 24.388 352.545 24.7279 352.654 25.0195C352.766 25.3112 352.926 25.5391 353.135 25.7031C353.346 25.8646 353.601 25.9453 353.9 25.9453C354.213 25.9453 354.475 25.862 354.686 25.6953C354.896 25.526 355.055 25.2956 355.162 25.0039C355.271 24.7096 355.326 24.375 355.326 24C355.326 23.6276 355.273 23.2969 355.166 23.0078C355.059 22.7187 354.9 22.4922 354.689 22.3281C354.479 22.1641 354.215 22.082 353.9 22.082C353.598 22.082 353.342 22.1615 353.131 22.3203C352.92 22.4792 352.76 22.7018 352.65 22.9883C352.544 23.2747 352.49 23.612 352.49 24ZM357.97 27V21H359.384V27H357.97ZM358.681 20.1484C358.457 20.1484 358.264 20.0742 358.103 19.9258C357.941 19.7747 357.86 19.5937 357.86 19.3828C357.86 19.1693 357.941 18.9883 358.103 18.8398C358.264 18.6888 358.457 18.6133 358.681 18.6133C358.907 18.6133 359.1 18.6888 359.259 18.8398C359.42 18.9883 359.501 19.1693 359.501 19.3828C359.501 19.5937 359.42 19.7747 359.259 19.9258C359.1 20.0742 358.907 20.1484 358.681 20.1484ZM362.252 19V27H360.838V19H362.252ZM363.706 27V21H365.12V27H363.706ZM364.417 20.1484C364.193 20.1484 364 20.0742 363.839 19.9258C363.677 19.7747 363.597 19.5937 363.597 19.3828C363.597 19.1693 363.677 18.9883 363.839 18.8398C364 18.6888 364.193 18.6133 364.417 18.6133C364.644 18.6133 364.836 18.6888 364.995 18.8398C365.157 18.9883 365.237 19.1693 365.237 19.3828C365.237 19.5937 365.157 19.7747 364.995 19.9258C364.836 20.0742 364.644 20.1484 364.417 20.1484ZM369.57 21V22.0937H366.121V21H369.57ZM366.973 19.5625H368.387V25.1953C368.387 25.3854 368.415 25.5313 368.473 25.6328C368.533 25.7318 368.611 25.7995 368.707 25.8359C368.803 25.8724 368.91 25.8906 369.027 25.8906C369.116 25.8906 369.197 25.8841 369.27 25.8711C369.345 25.8581 369.402 25.8464 369.441 25.8359L369.68 26.9414C369.604 26.9674 369.496 26.9961 369.355 27.0273C369.217 27.0586 369.048 27.0768 368.848 27.082C368.493 27.0924 368.174 27.0391 367.891 26.9219C367.607 26.8021 367.382 26.6172 367.215 26.3672C367.051 26.1172 366.97 25.8047 366.973 25.4297V19.5625ZM373.345 27.1172C372.743 27.1172 372.224 26.9922 371.786 26.7422C371.351 26.4896 371.017 26.1328 370.782 25.6719C370.548 25.2083 370.431 24.6628 370.431 24.0352C370.431 23.418 370.548 22.8763 370.782 22.4102C371.019 21.9414 371.35 21.5768 371.774 21.3164C372.199 21.0534 372.698 20.9219 373.271 20.9219C373.64 20.9219 373.989 20.9818 374.317 21.1016C374.648 21.2187 374.94 21.401 375.192 21.6484C375.448 21.8958 375.648 22.2109 375.794 22.5937C375.94 22.974 376.013 23.4271 376.013 23.9531V24.3867H371.095V23.4336H374.657C374.655 23.1628 374.596 22.9219 374.481 22.7109C374.367 22.4974 374.207 22.3294 374.001 22.207C373.798 22.0846 373.561 22.0234 373.29 22.0234C373.001 22.0234 372.747 22.0937 372.528 22.2344C372.31 22.3724 372.139 22.5547 372.017 22.7812C371.897 23.0052 371.836 23.2513 371.833 23.5195V24.3516C371.833 24.7005 371.897 25 372.024 25.25C372.152 25.4974 372.33 25.6875 372.56 25.8203C372.789 25.9505 373.057 26.0156 373.364 26.0156C373.57 26.0156 373.756 25.987 373.923 25.9297C374.09 25.8698 374.234 25.7826 374.356 25.668C374.479 25.5534 374.571 25.4115 374.634 25.2422L375.954 25.3906C375.871 25.7396 375.712 26.0443 375.478 26.3047C375.246 26.5625 374.949 26.763 374.587 26.9062C374.225 27.0469 373.811 27.1172 373.345 27.1172ZM372.688 20.2109L373.563 18.4258H374.946L373.747 20.2109H372.688ZM380 27V19H383.063C383.641 19 384.121 19.0911 384.504 19.2734C384.889 19.4531 385.177 19.6992 385.367 20.0117C385.56 20.3242 385.656 20.6784 385.656 21.0742C385.656 21.3997 385.594 21.6784 385.469 21.9102C385.344 22.1393 385.176 22.3255 384.965 22.4687C384.754 22.612 384.518 22.7148 384.258 22.7773V22.8555C384.542 22.8711 384.814 22.9583 385.074 23.1172C385.337 23.2734 385.552 23.4948 385.719 23.7812C385.885 24.0677 385.969 24.4141 385.969 24.8203C385.969 25.2344 385.868 25.6068 385.668 25.9375C385.467 26.2656 385.165 26.5247 384.762 26.7148C384.358 26.9049 383.85 27 383.238 27H380ZM381.449 25.7891H383.008C383.534 25.7891 383.913 25.6888 384.145 25.4883C384.379 25.2852 384.496 25.0247 384.496 24.707C384.496 24.4701 384.438 24.2565 384.32 24.0664C384.203 23.8737 384.036 23.7227 383.82 23.6133C383.604 23.5013 383.346 23.4453 383.047 23.4453H381.449V25.7891ZM381.449 22.4023H382.883C383.133 22.4023 383.358 22.3568 383.559 22.2656C383.759 22.1719 383.917 22.0404 384.031 21.8711C384.148 21.6992 384.207 21.4961 384.207 21.2617C384.207 20.9518 384.098 20.6966 383.879 20.4961C383.663 20.2956 383.341 20.1953 382.914 20.1953H381.449V22.4023Z" fill="#3C1441"/>
<path d="M348.052 56.288C347.012 56.288 346.06 56.064 345.196 55.616C344.332 55.152 343.628 54.512 343.084 53.696C342.556 52.88 342.26 51.952 342.196 50.912H344.38C344.508 51.904 344.916 52.704 345.604 53.312C346.292 53.92 347.116 54.224 348.076 54.224C349.068 54.224 349.884 53.912 350.524 53.288C351.18 52.664 351.508 51.864 351.508 50.888C351.508 49.944 351.14 49.176 350.404 48.584C349.684 47.976 348.756 47.672 347.62 47.672H346.78L346.492 45.656H347.668C348.676 45.656 349.5 45.376 350.14 44.816C350.796 44.256 351.124 43.536 351.124 42.656C351.124 41.824 350.828 41.144 350.236 40.616C349.644 40.088 348.884 39.824 347.956 39.824C347.028 39.824 346.228 40.136 345.556 40.76C344.9 41.384 344.508 42.184 344.38 43.16H342.172C342.252 42.104 342.556 41.168 343.084 40.352C343.628 39.536 344.324 38.904 345.172 38.456C346.036 37.992 346.98 37.76 348.004 37.76C349.044 37.76 349.972 37.96 350.788 38.36C351.62 38.76 352.268 39.32 352.732 40.04C353.196 40.76 353.428 41.576 353.428 42.488C353.428 43.576 353.1 44.496 352.444 45.248C351.788 46 350.956 46.44 349.948 46.568C350.684 46.664 351.348 46.928 351.94 47.36C352.532 47.792 352.996 48.328 353.332 48.968C353.668 49.608 353.836 50.28 353.836 50.984C353.836 52.008 353.588 52.92 353.092 53.72C352.596 54.52 351.908 55.152 351.028 55.616C350.148 56.064 349.156 56.288 348.052 56.288Z" fill="#3C1441"/>
</g>
<defs>
<filter id="filter0_d_5312_21179" x="0" y="0" width="152" height="84" filterUnits="userSpaceOnUse" color-interpolation-filters="sRGB">
<feFlood flood-opacity="0" result="BackgroundImageFix"/>
<feColorMatrix in="SourceAlpha" type="matrix" values="0 0 0 0 0 0 0 0 0 0 0 0 0 0 0 0 0 0 127 0" result="hardAlpha"/>
<feOffset dy="4"/>
<feGaussianBlur stdDeviation="6"/>
<feComposite in2="hardAlpha" operator="out"/>
<feColorMatrix type="matrix" values="0 0 0 0 0.235294 0 0 0 0 0.0784314 0 0 0 0 0.254902 0 0 0 0.08 0"/>
<feBlend mode="normal" in2="BackgroundImageFix" result="effect1_dropShadow_5312_21179"/>
<feBlend mode="normal" in="SourceGraphic" in2="effect1_dropShadow_5312_21179" result="shape"/>
</filter>
<filter id="filter1_d_5312_21179" x="136" y="0" width="152" height="84" filterUnits="userSpaceOnUse" color-interpolation-filters="sRGB">
<feFlood flood-opacity="0" result="BackgroundImageFix"/>
<feColorMatrix in="SourceAlpha" type="matrix" values="0 0 0 0 0 0 0 0 0 0 0 0 0 0 0 0 0 0 127 0" result="hardAlpha"/>
<feOffset dy="4"/>
<feGaussianBlur stdDeviation="6"/>
<feComposite in2="hardAlpha" operator="out"/>
<feColorMatrix type="matrix" values="0 0 0 0 0.235294 0 0 0 0 0.0784314 0 0 0 0 0.254902 0 0 0 0.08 0"/>
<feBlend mode="normal" in2="BackgroundImageFix" result="effect1_dropShadow_5312_21179"/>
<feBlend mode="normal" in="SourceGraphic" in2="effect1_dropShadow_5312_21179" result="shape"/>
</filter>
<filter id="filter2_d_5312_21179" x="272" y="0" width="152" height="84" filterUnits="userSpaceOnUse" color-interpolation-filters="sRGB">
<feFlood flood-opacity="0" result="BackgroundImageFix"/>
<feColorMatrix in="SourceAlpha" type="matrix" values="0 0 0 0 0 0 0 0 0 0 0 0 0 0 0 0 0 0 127 0" result="hardAlpha"/>
<feOffset dy="4"/>
<feGaussianBlur stdDeviation="6"/>
<feComposite in2="hardAlpha" operator="out"/>
<feColorMatrix type="matrix" values="0 0 0 0 0.235294 0 0 0 0 0.0784314 0 0 0 0 0.254902 0 0 0 0.08 0"/>
<feBlend mode="normal" in2="BackgroundImageFix" result="effect1_dropShadow_5312_21179"/>
<feBlend mode="normal" in="SourceGraphic" in2="effect1_dropShadow_5312_21179" result="shape"/>
</filter>
</defs>
</svg>
