<svg width="88" height="40" viewBox="0 0 88 40" fill="none" xmlns="http://www.w3.org/2000/svg">
<rect width="40" height="40" rx="8" fill="#C8C8FF"/>
<path d="M23 17.9998L19 21.9998L17 19.9998M21.246 11.4588L22.467 12.4993C22.7746 12.7614 23.1566 12.9199 23.5594 12.9521L25.1585 13.0795C26.0986 13.1545 26.8453 13.9008 26.9204 14.8409L27.0475 16.4402C27.0797 16.8431 27.2387 17.2256 27.5008 17.5332L28.5409 18.7538C29.1526 19.4716 29.1527 20.5275 28.541 21.2454L27.5009 22.4662C27.2388 22.7738 27.08 23.1564 27.0478 23.5593L26.9199 25.1583C26.8449 26.0984 26.0993 26.8452 25.1591 26.9202L23.5595 27.0478C23.1567 27.08 22.7744 27.2381 22.4667 27.5002L21.246 28.5407C20.5282 29.1525 19.4717 29.1526 18.7539 28.5409L17.5332 27.5003C17.2256 27.2382 16.8433 27.0798 16.4404 27.0477L14.8408 26.9202C13.9006 26.8452 13.1551 26.0986 13.08 25.1585L12.9521 23.5594C12.92 23.1565 12.7611 22.7742 12.499 22.4666L11.4589 21.2454C10.8472 20.5276 10.8469 19.472 11.4586 18.7542L12.4996 17.533C12.7618 17.2254 12.9191 16.8431 12.9512 16.4402L13.0792 14.8411C13.1542 13.901 13.9019 13.1544 14.842 13.0794L16.4399 12.952C16.8428 12.9198 17.2252 12.7615 17.5328 12.4993L18.754 11.4588C19.4718 10.8471 20.5282 10.8471 21.246 11.4588Z" stroke="#320A37" stroke-width="1.5" stroke-linecap="square" stroke-linejoin="round"/>
<rect x="48.5" y="0.5" width="39" height="39" rx="7.5" fill="white"/>
<rect x="48.5" y="0.5" width="39" height="39" rx="7.5" stroke="#320A37"/>
<path d="M61 20H75M75 20L69 14M75 20L69 26" stroke="#320A37" stroke-width="1.5" stroke-linecap="square" stroke-linejoin="round"/>
</svg>
