<svg width="40" height="40" viewBox="0 0 40 40" fill="none" xmlns="http://www.w3.org/2000/svg">
<rect x="0.5" y="0.5" width="39" height="39" rx="7.5" stroke="white" stroke-opacity="0.4"/>
<path d="M13.1197 25V23.6676L16.6545 20.2024C16.9925 19.861 17.2743 19.5578 17.4996 19.2926C17.725 19.0275 17.8941 18.7706 18.0067 18.522C18.1194 18.2734 18.1758 18.0083 18.1758 17.7266C18.1758 17.4051 18.1029 17.13 17.957 16.9013C17.8112 16.6693 17.6107 16.4903 17.3555 16.3643C17.1003 16.2384 16.8103 16.1754 16.4854 16.1754C16.1507 16.1754 15.8574 16.245 15.6055 16.3842C15.3536 16.5201 15.158 16.714 15.0188 16.9659C14.8829 17.2178 14.815 17.5178 14.815 17.8658H13.06C13.06 17.2195 13.2075 16.6577 13.5025 16.1804C13.7975 15.7031 14.2035 15.3336 14.7205 15.0717C15.2409 14.8099 15.8375 14.679 16.5103 14.679C17.1931 14.679 17.793 14.8066 18.31 15.0618C18.8271 15.317 19.2281 15.6667 19.5131 16.1108C19.8015 16.5549 19.9457 17.062 19.9457 17.6321C19.9457 18.0133 19.8728 18.3878 19.7269 18.7557C19.5811 19.1236 19.3242 19.5312 18.9563 19.9787C18.5917 20.4261 18.0797 20.968 17.4201 21.6044L15.6651 23.3892V23.4588H20.0998V25H13.1197ZM23.3065 17.3636L24.8477 20.1825L26.4137 17.3636H28.3178L26.016 21.1818L28.3576 25H26.4634L24.8477 22.2507L23.2468 25H21.3377L23.6644 21.1818L21.3974 17.3636H23.3065Z" fill="white"/>
</svg>
