<svg width="40" height="40" viewBox="0 0 40 40" fill="none" xmlns="http://www.w3.org/2000/svg">
<rect y="0.00012207" width="40" height="40" rx="8" fill="#C8C8FF"/>
<path d="M17.2305 17.0001H15.2002C14.0801 17.0001 13.5196 17.0001 13.0918 17.2181C12.7155 17.4099 12.4097 17.7156 12.218 18.0919C12 18.5197 12 19.0802 12 20.2003V25.8003C12 26.9204 12 27.4802 12.218 27.908C12.4097 28.2843 12.7155 28.5906 13.0918 28.7823C13.5192 29.0001 14.079 29.0001 15.1969 29.0001H24.8031C25.921 29.0001 26.48 29.0001 26.9074 28.7823C27.2837 28.5906 27.5905 28.2843 27.7822 27.908C28 27.4806 28 26.9216 28 25.8037V20.197C28 19.0791 28 18.5193 27.7822 18.0919C27.5905 17.7156 27.2837 17.4099 26.9074 17.2181C26.4796 17.0001 25.9203 17.0001 24.8002 17.0001H22.7689M17.2305 17.0001H22.7689M17.2305 17.0001C17.103 17.0001 17 16.8968 17 16.7694V14.0001C17 12.3433 18.3431 11.0001 20 11.0001C21.6569 11.0001 23 12.3433 23 14.0001V16.7694C23 16.8968 22.8964 17.0001 22.7689 17.0001" stroke="#320A37" stroke-width="1.5" stroke-linecap="round" stroke-linejoin="round"/>
</svg>
