<svg width="88" height="40" viewBox="0 0 88 40" fill="none" xmlns="http://www.w3.org/2000/svg">
<rect width="40" height="40" rx="8" fill="#FFAAAA"/>
<path d="M23 17.0001L19 21.0001L17 19.0001M28 18.1652C28 24.7334 23.0319 27.6782 20.9258 28.6315L20.9231 28.6327C20.7016 28.7329 20.5906 28.7832 20.3389 28.8264C20.1795 28.8538 19.8215 28.8538 19.6621 28.8264C19.4094 28.783 19.2972 28.7326 19.074 28.6315C16.9678 27.6782 12 24.7334 12 18.1652V14.2003C12 13.0802 12 12.5197 12.218 12.0919C12.4097 11.7156 12.7155 11.4099 13.0918 11.2181C13.5196 11.0001 14.0801 11.0001 15.2002 11.0001H24.8002C25.9203 11.0001 26.4796 11.0001 26.9074 11.2181C27.2837 11.4099 27.5905 11.7156 27.7822 12.0919C28 12.5193 28 13.0791 28 14.197V18.1652Z" stroke="#320A37" stroke-width="1.5" stroke-linecap="square" stroke-linejoin="round"/>
<rect x="48.5" y="0.5" width="39" height="39" rx="7.5" stroke="#320A37"/>
<path d="M61 20.0001H75M75 20.0001L69 14.0001M75 20.0001L69 26.0001" stroke="#320A37" stroke-width="1.5" stroke-linecap="square" stroke-linejoin="round"/>
</svg>
