<svg width="40" height="40" viewBox="0 0 40 40" fill="none" xmlns="http://www.w3.org/2000/svg">
<rect x="0.5" y="0.5" width="39" height="39" rx="7.5" stroke="white" stroke-opacity="0.4"/>
<path d="M13.5423 14.8182V25H11.6978V16.6129H11.6381L9.25675 18.1342V16.4439L11.7873 14.8182H13.5423ZM16.1275 25V23.6676L19.6623 20.2024C20.0004 19.861 20.2821 19.5578 20.5075 19.2926C20.7328 19.0275 20.9019 18.7706 21.0146 18.522C21.1272 18.2734 21.1836 18.0083 21.1836 17.7266C21.1836 17.4051 21.1107 17.13 20.9648 16.9013C20.819 16.6693 20.6185 16.4903 20.3633 16.3643C20.1081 16.2384 19.8181 16.1754 19.4933 16.1754C19.1585 16.1754 18.8652 16.245 18.6133 16.3842C18.3614 16.5201 18.1658 16.714 18.0266 16.9659C17.8907 17.2178 17.8228 17.5178 17.8228 17.8658H16.0678C16.0678 17.2195 16.2153 16.6577 16.5103 16.1804C16.8053 15.7031 17.2113 15.3336 17.7283 15.0717C18.2487 14.8099 18.8453 14.679 19.5181 14.679C20.2009 14.679 20.8008 14.8066 21.3178 15.0618C21.8349 15.317 22.2359 15.6667 22.521 16.1108C22.8093 16.5549 22.9535 17.062 22.9535 17.6321C22.9535 18.0133 22.8806 18.3878 22.7347 18.7557C22.5889 19.1236 22.332 19.5312 21.9641 19.9787C21.5996 20.4261 21.0875 20.968 20.4279 21.6044L18.6729 23.3892V23.4588H23.1076V25H16.1275ZM26.6424 20.5256V25H24.8427V14.8182H26.6026V18.6612H26.6921C26.8711 18.2304 27.1478 17.8906 27.5224 17.642C27.9002 17.3902 28.3808 17.2642 28.9641 17.2642C29.4944 17.2642 29.9568 17.3752 30.3512 17.5973C30.7456 17.8194 31.0505 18.1442 31.266 18.5717C31.4847 18.9993 31.5941 19.5213 31.5941 20.1378V25H29.7944V20.4162C29.7944 19.9025 29.6618 19.5031 29.3967 19.218C29.1348 18.9297 28.7669 18.7855 28.293 18.7855C27.9748 18.7855 27.6897 18.8551 27.4379 18.9943C27.1893 19.1302 26.9937 19.3274 26.8512 19.5859C26.712 19.8445 26.6424 20.1577 26.6424 20.5256Z" fill="white"/>
</svg>
