<svg width="40" height="40" viewBox="0 0 40 40" fill="none" xmlns="http://www.w3.org/2000/svg">
<rect y="0.00012207" width="40" height="40" rx="8" fill="white"/>
<path d="M25 28.0001C25 26.3433 22.7614 25.0001 20 25.0001C17.2386 25.0001 15 26.3433 15 28.0001M29 25.0005C29 23.7703 27.7659 22.7131 26 22.2501M11 25.0005C11 23.7703 12.2341 22.7131 14 22.2501M26 18.2362C26.6137 17.6869 27 16.8886 27 16.0001C27 14.3433 25.6569 13.0001 24 13.0001C23.2316 13.0001 22.5308 13.289 22 13.764M14 18.2362C13.3863 17.6869 13 16.8886 13 16.0001C13 14.3433 14.3431 13.0001 16 13.0001C16.7684 13.0001 17.4692 13.289 18 13.764M20 22.0001C18.3431 22.0001 17 20.657 17 19.0001C17 17.3433 18.3431 16.0001 20 16.0001C21.6569 16.0001 23 17.3433 23 19.0001C23 20.657 21.6569 22.0001 20 22.0001Z" stroke="#320A37" stroke-width="1.5" stroke-linecap="square" stroke-linejoin="round"/>
</svg>
