<svg width="88" height="40" viewBox="0 0 88 40" fill="none" xmlns="http://www.w3.org/2000/svg">
<rect width="40" height="40" rx="8" fill="#C8C8FF"/>
<path d="M23 19.0002L19 23.0002L17 21.0002M12 24.8003V19.4523C12 18.918 12 18.6507 12.065 18.4021C12.1225 18.1817 12.2178 17.9732 12.3457 17.7848C12.49 17.5721 12.6906 17.3958 13.0928 17.0439L17.8944 12.8426C18.6398 12.1903 19.0126 11.8641 19.4324 11.7399C19.8026 11.6305 20.1972 11.6305 20.5674 11.7399C20.9875 11.8642 21.3608 12.1907 22.1074 12.8439L26.9074 17.0439C27.3096 17.3958 27.5102 17.5721 27.6546 17.7848C27.7825 17.9732 27.877 18.1817 27.9346 18.4021C27.9995 18.6507 28 18.918 28 19.4523V24.8038C28 25.9217 28 26.4813 27.7822 26.9087C27.5905 27.285 27.2837 27.5907 26.9074 27.7824C26.48 28.0002 25.921 28.0002 24.8031 28.0002H15.1969C14.079 28.0002 13.5192 28.0002 13.0918 27.7824C12.7155 27.5907 12.4097 27.285 12.218 26.9087C12 26.4809 12 25.9204 12 24.8003Z" stroke="#320A37" stroke-width="1.5" stroke-linecap="square" stroke-linejoin="round"/>
<rect x="48.5" y="0.5" width="39" height="39" rx="7.5" stroke="#320A37"/>
<path d="M60.9902 20.0001H74.9902M74.9902 20.0001L68.9902 14.0001M74.9902 20.0001L68.9902 26.0001" stroke="#320A37" stroke-width="1.5" stroke-linecap="square" stroke-linejoin="round"/>
</svg>
