<svg width="40" height="40" viewBox="0 0 40 40" fill="none" xmlns="http://www.w3.org/2000/svg">
<rect x="0.5" y="0.5" width="39" height="39" rx="7.5" stroke="white" stroke-opacity="0.4"/>
<path d="M8.43874 14.8182V25H6.59428V16.6129H6.53462L4.15323 18.1342V16.4439L6.68377 14.8182H8.43874ZM13.7875 25.1939C12.9688 25.1939 12.2662 24.9867 11.6795 24.5724C11.0962 24.1548 10.6471 23.5533 10.3322 22.7678C10.0207 21.9789 9.86488 21.0294 9.86488 19.919C9.86819 18.8087 10.0256 17.8641 10.3372 17.0852C10.652 16.303 11.1011 15.7064 11.6845 15.2955C12.2711 14.8845 12.9721 14.679 13.7875 14.679C14.6028 14.679 15.3038 14.8845 15.8904 15.2955C16.4771 15.7064 16.9262 16.303 17.2377 17.0852C17.5526 17.8674 17.71 18.812 17.71 19.919C17.71 21.0327 17.5526 21.9839 17.2377 22.7727C16.9262 23.5582 16.4771 24.1581 15.8904 24.5724C15.3071 24.9867 14.6061 25.1939 13.7875 25.1939ZM13.7875 23.6378C14.4238 23.6378 14.926 23.3246 15.2939 22.6982C15.6651 22.0684 15.8507 21.142 15.8507 19.919C15.8507 19.1103 15.7662 18.4309 15.5971 17.8807C15.4281 17.3305 15.1895 16.9162 14.8812 16.6378C14.573 16.3561 14.2084 16.2152 13.7875 16.2152C13.1544 16.2152 12.6539 16.5301 12.286 17.1598C11.9181 17.7862 11.7325 18.706 11.7292 19.919C11.7259 20.7311 11.8071 21.4138 11.9728 21.9673C12.1419 22.5208 12.3805 22.9384 12.6887 23.2202C12.997 23.4986 13.3632 23.6378 13.7875 23.6378ZM22.1254 25.1939C21.3067 25.1939 20.604 24.9867 20.0174 24.5724C19.4341 24.1548 18.985 23.5533 18.6701 22.7678C18.3585 21.9789 18.2028 21.0294 18.2028 19.919C18.2061 18.8087 18.3635 17.8641 18.6751 17.0852C18.9899 16.303 19.439 15.7064 20.0224 15.2955C20.609 14.8845 21.31 14.679 22.1254 14.679C22.9407 14.679 23.6417 14.8845 24.2283 15.2955C24.815 15.7064 25.2641 16.303 25.5756 17.0852C25.8905 17.8674 26.0479 18.812 26.0479 19.919C26.0479 21.0327 25.8905 21.9839 25.5756 22.7727C25.2641 23.5582 24.815 24.1581 24.2283 24.5724C23.645 24.9867 22.944 25.1939 22.1254 25.1939ZM22.1254 23.6378C22.7617 23.6378 23.2638 23.3246 23.6317 22.6982C24.003 22.0684 24.1886 21.142 24.1886 19.919C24.1886 19.1103 24.104 18.4309 23.935 17.8807C23.766 17.3305 23.5273 16.9162 23.2191 16.6378C22.9109 16.3561 22.5463 16.2152 22.1254 16.2152C21.4923 16.2152 20.9918 16.5301 20.6239 17.1598C20.256 17.7862 20.0704 18.706 20.0671 19.919C20.0638 20.7311 20.145 21.4138 20.3107 21.9673C20.4798 22.5208 20.7184 22.9384 21.0266 23.2202C21.3349 23.4986 21.7011 23.6378 22.1254 23.6378ZM32.1436 23.0909V22.554C32.1436 22.1596 32.2265 21.7966 32.3922 21.4652C32.5613 21.1338 32.8065 20.867 33.128 20.6648C33.4495 20.4626 33.839 20.3615 34.2963 20.3615C34.767 20.3615 35.1614 20.4626 35.4796 20.6648C35.7978 20.8636 36.0381 21.1288 36.2005 21.4602C36.3662 21.7917 36.449 22.1562 36.449 22.554V23.0909C36.449 23.4853 36.3662 23.8482 36.2005 24.1797C36.0347 24.5111 35.7911 24.7779 35.4696 24.9801C35.1515 25.1823 34.7604 25.2834 34.2963 25.2834C33.8323 25.2834 33.4396 25.1823 33.1181 24.9801C32.7966 24.7779 32.553 24.5111 32.3873 24.1797C32.2248 23.8482 32.1436 23.4853 32.1436 23.0909ZM33.4412 22.554V23.0909C33.4412 23.3527 33.5042 23.593 33.6301 23.8118C33.7561 24.0305 33.9782 24.1399 34.2963 24.1399C34.6178 24.1399 34.8382 24.0322 34.9576 23.8168C35.0802 23.598 35.1415 23.3561 35.1415 23.0909V22.554C35.1415 22.2888 35.0835 22.0469 34.9675 21.8281C34.8515 21.6061 34.6278 21.495 34.2963 21.495C33.9848 21.495 33.7644 21.6061 33.6351 21.8281C33.5059 22.0469 33.4412 22.2888 33.4412 22.554ZM26.9682 17.2642V16.7273C26.9682 16.3295 27.0527 15.965 27.2218 15.6335C27.3908 15.3021 27.6361 15.0369 27.9576 14.8381C28.2791 14.6359 28.6685 14.5348 29.1259 14.5348C29.5932 14.5348 29.986 14.6359 30.3042 14.8381C30.6257 15.0369 30.8676 15.3021 31.03 15.6335C31.1924 15.965 31.2736 16.3295 31.2736 16.7273V17.2642C31.2736 17.6619 31.1908 18.0265 31.025 18.358C30.8626 18.6861 30.6207 18.9496 30.2992 19.1484C29.9777 19.3473 29.5866 19.4467 29.1259 19.4467C28.6586 19.4467 28.2641 19.3473 27.9426 19.1484C27.6245 18.9496 27.3825 18.6844 27.2168 18.353C27.0511 18.0215 26.9682 17.6586 26.9682 17.2642ZM28.2757 16.7273V17.2642C28.2757 17.5294 28.3371 17.7713 28.4597 17.9901C28.5856 18.2055 28.8077 18.3132 29.1259 18.3132C29.4441 18.3132 29.6628 18.2055 29.7821 17.9901C29.9048 17.7713 29.9661 17.5294 29.9661 17.2642V16.7273C29.9661 16.4621 29.9081 16.2202 29.7921 16.0014C29.6761 15.7794 29.454 15.6683 29.1259 15.6683C28.811 15.6683 28.5906 15.7794 28.4647 16.0014C28.3387 16.2235 28.2757 16.4654 28.2757 16.7273ZM27.535 25L34.535 14.8182H35.7779L28.7779 25H27.535Z" fill="white"/>
</svg>
