<svg width="190" height="30" viewBox="0 0 190 30" fill="none" xmlns="http://www.w3.org/2000/svg">
<rect width="30" height="30" rx="6.00146" fill="#F2F2F2"/>
<path d="M11.001 21.8906H8.09156V12.5343H11.001V21.8906ZM9.5463 11.2595C8.6122 11.2595 7.85803 10.5053 7.85803 9.57507C7.85803 8.6448 8.6122 7.89062 9.5463 7.89062C10.4766 7.89062 11.2307 8.6448 11.2307 9.57507C11.2307 10.5015 10.4766 11.2595 9.5463 11.2595ZM21.8887 21.8906H18.983V17.3426C18.983 16.2592 18.9639 14.8619 17.4708 14.8619C15.9587 14.8619 15.729 16.0449 15.729 17.2661V21.8906H12.8271V12.5343H15.6141V13.813H15.6524C16.0391 13.0779 16.9885 12.3008 18.4011 12.3008C21.345 12.3008 21.8887 14.2379 21.8887 16.7569V21.8906Z" fill="#320A37"/>
<rect x="40" width="30" height="30" rx="6.00146" fill="#F2F2F2"/>
<path d="M59.6175 8.26904H61.8665L56.9531 13.8847L62.7333 21.5264H58.2075L54.6627 16.8917L50.6066 21.5264H48.3563L53.6116 15.5198L48.0667 8.26904H52.7074L55.9116 12.5053L59.6175 8.26904ZM58.8282 20.1802H60.0744L52.0302 9.54446H50.693L58.8282 20.1802Z" fill="#320A37"/>
<rect x="80" width="30" height="30" rx="6.00146" fill="#F2F2F2"/>
<g clip-path="url(#clip0_5840_7602)">
<path d="M94.7999 8.44062C96.9374 8.44062 97.1906 8.45 98.0312 8.4875C98.8124 8.52187 99.2343 8.65313 99.5156 8.7625C99.8874 8.90625 100.156 9.08125 100.434 9.35937C100.716 9.64062 100.887 9.90625 101.031 10.2781C101.141 10.5594 101.272 10.9844 101.306 11.7625C101.344 12.6062 101.353 12.8594 101.353 14.9937C101.353 17.1312 101.344 17.3844 101.306 18.225C101.272 19.0063 101.141 19.4281 101.031 19.7094C100.887 20.0813 100.712 20.35 100.434 20.6281C100.153 20.9094 99.8874 21.0813 99.5156 21.225C99.2343 21.3344 98.8093 21.4656 98.0312 21.5C97.1874 21.5375 96.9343 21.5469 94.7999 21.5469C92.6624 21.5469 92.4093 21.5375 91.5687 21.5C90.7874 21.4656 90.3656 21.3344 90.0843 21.225C89.7124 21.0813 89.4437 20.9062 89.1656 20.6281C88.8843 20.3469 88.7124 20.0813 88.5687 19.7094C88.4593 19.4281 88.3281 19.0031 88.2937 18.225C88.2562 17.3813 88.2468 17.1281 88.2468 14.9937C88.2468 12.8562 88.2562 12.6031 88.2937 11.7625C88.3281 10.9812 88.4593 10.5594 88.5687 10.2781C88.7124 9.90625 88.8874 9.6375 89.1656 9.35937C89.4468 9.07812 89.7124 8.90625 90.0843 8.7625C90.3656 8.65313 90.7906 8.52187 91.5687 8.4875C92.4093 8.45 92.6624 8.44062 94.7999 8.44062ZM94.7999 7C92.6281 7 92.3562 7.00937 91.5031 7.04687C90.6531 7.08437 90.0687 7.22187 89.5624 7.41875C89.0343 7.625 88.5874 7.89687 88.1437 8.34375C87.6968 8.7875 87.4249 9.23438 87.2187 9.75938C87.0218 10.2687 86.8843 10.85 86.8468 11.7C86.8093 12.5562 86.7999 12.8281 86.7999 15C86.7999 17.1719 86.8093 17.4437 86.8468 18.2969C86.8843 19.1469 87.0218 19.7312 87.2187 20.2375C87.4249 20.7656 87.6968 21.2125 88.1437 21.6562C88.5874 22.1 89.0343 22.375 89.5593 22.5781C90.0687 22.775 90.6499 22.9125 91.4999 22.95C92.3531 22.9875 92.6249 22.9969 94.7968 22.9969C96.9687 22.9969 97.2406 22.9875 98.0937 22.95C98.9437 22.9125 99.5281 22.775 100.034 22.5781C100.559 22.375 101.006 22.1 101.45 21.6562C101.894 21.2125 102.169 20.7656 102.372 20.2406C102.569 19.7312 102.706 19.15 102.744 18.3C102.781 17.4469 102.791 17.175 102.791 15.0031C102.791 12.8313 102.781 12.5594 102.744 11.7062C102.706 10.8562 102.569 10.2719 102.372 9.76562C102.175 9.23437 101.903 8.7875 101.456 8.34375C101.012 7.9 100.566 7.625 100.041 7.42187C99.5312 7.225 98.9499 7.0875 98.0999 7.05C97.2437 7.00938 96.9718 7 94.7999 7Z" fill="#320A37"/>
<path d="M94.7999 10.8906C92.5312 10.8906 90.6906 12.7312 90.6906 15C90.6906 17.2687 92.5312 19.1094 94.7999 19.1094C97.0687 19.1094 98.9093 17.2687 98.9093 15C98.9093 12.7312 97.0687 10.8906 94.7999 10.8906ZM94.7999 17.6656C93.3281 17.6656 92.1343 16.4719 92.1343 15C92.1343 13.5281 93.3281 12.3344 94.7999 12.3344C96.2718 12.3344 97.4656 13.5281 97.4656 15C97.4656 16.4719 96.2718 17.6656 94.7999 17.6656Z" fill="#320A37"/>
<path d="M100.031 10.7284C100.031 11.2597 99.5999 11.6878 99.0718 11.6878C98.5406 11.6878 98.1124 11.2565 98.1124 10.7284C98.1124 10.1972 98.5437 9.76904 99.0718 9.76904C99.5999 9.76904 100.031 10.2003 100.031 10.7284Z" fill="#320A37"/>
</g>
<rect x="120" width="30" height="30" rx="6.00146" fill="#F2F2F2"/>
<g clip-path="url(#clip1_5840_7602)">
<path d="M143.041 11.7997C143.041 11.7997 142.884 10.6966 142.403 10.2122C141.794 9.57471 141.112 9.57158 140.8 9.53408C138.562 9.37158 135.203 9.37158 135.203 9.37158H135.197C135.197 9.37158 131.837 9.37158 129.6 9.53408C129.287 9.57158 128.606 9.57471 127.997 10.2122C127.516 10.6966 127.362 11.7997 127.362 11.7997C127.362 11.7997 127.2 13.0966 127.2 14.3903V15.6028C127.2 16.8966 127.359 18.1935 127.359 18.1935C127.359 18.1935 127.516 19.2966 127.994 19.781C128.603 20.4185 129.403 20.3966 129.759 20.4653C131.041 20.5872 135.2 20.6247 135.2 20.6247C135.2 20.6247 138.562 20.6185 140.8 20.4591C141.112 20.4216 141.794 20.4185 142.403 19.781C142.884 19.2966 143.041 18.1935 143.041 18.1935C143.041 18.1935 143.2 16.8997 143.2 15.6028V14.3903C143.2 13.0966 143.041 11.7997 143.041 11.7997ZM133.547 17.0747V12.5778L137.869 14.8341L133.547 17.0747Z" fill="#320A37"/>
</g>
<rect x="160" width="30" height="30" rx="6.00146" fill="#F2F2F2"/>
<path d="M177.18 17.4751C177.149 17.1957 177.056 16.994 176.87 16.8078C176.521 16.4432 175.908 16.2026 175.186 16.2026C174.464 16.2026 173.852 16.4354 173.502 16.8078C173.324 17.0018 173.223 17.1957 173.192 17.4751C173.13 18.0182 173.169 18.4837 173.231 19.2363C173.293 19.95 173.409 20.9044 173.557 21.8664C173.665 22.5569 173.751 22.9294 173.828 23.1931C173.96 23.6276 174.433 24 175.186 24C175.939 24 176.42 23.6199 176.544 23.1931C176.621 22.9294 176.707 22.5569 176.815 21.8664C176.963 20.8966 177.079 19.95 177.141 19.2363C177.211 18.4837 177.242 18.0182 177.18 17.4751Z" fill="#320A37"/>
<path d="M177.095 13.5185C177.095 14.5737 176.241 15.4271 175.186 15.4271C174.131 15.4271 173.277 14.5737 173.277 13.5185C173.277 12.4633 174.131 11.6099 175.186 11.6099C176.241 11.6099 177.095 12.4711 177.095 13.5185Z" fill="#320A37"/>
<path d="M175.163 6.00001C170.709 6.01553 167.063 9.63104 167.001 14.0845C166.954 17.6922 169.258 20.7802 172.478 21.9129C172.556 21.944 172.633 21.8741 172.626 21.7966C172.587 21.5172 172.54 21.2379 172.509 20.9586C172.494 20.8578 172.432 20.7802 172.346 20.7336C169.802 19.6241 168.025 17.0716 168.056 14.1155C168.095 10.2362 171.26 7.07846 175.132 7.04743C179.096 7.01639 182.332 10.2285 182.332 14.1854C182.332 17.1103 180.563 19.6241 178.041 20.7336C177.948 20.7724 177.886 20.8578 177.878 20.9586C177.839 21.2379 177.801 21.5172 177.762 21.7966C177.746 21.8819 177.832 21.944 177.909 21.9129C181.098 20.7957 183.387 17.7543 183.387 14.1854C183.371 9.66984 179.686 5.99225 175.163 6.00001Z" fill="#320A37"/>
<path d="M174.977 8.71634C172.075 8.82496 169.747 11.2224 169.708 14.1241C169.685 16.0327 170.639 17.7241 172.106 18.7249C172.176 18.7715 172.277 18.7172 172.277 18.6318C172.253 18.2982 172.253 18.0034 172.269 17.6931C172.277 17.5922 172.238 17.4991 172.16 17.4293C171.268 16.5913 170.725 15.3965 170.756 14.0775C170.818 11.75 172.688 9.85685 175.015 9.76375C177.545 9.66289 179.624 11.6956 179.624 14.1939C179.624 15.4663 179.081 16.6146 178.22 17.4293C178.15 17.4991 178.111 17.5922 178.111 17.6931C178.127 17.9956 178.119 18.2905 178.103 18.6241C178.095 18.7094 178.196 18.7715 178.274 18.7172C179.717 17.7318 180.671 16.0637 180.671 14.1862C180.679 11.0982 178.095 8.5922 174.977 8.71634Z" fill="#320A37"/>
<defs>
<clipPath id="clip0_5840_7602">
<rect width="16" height="16" fill="white" transform="translate(86.7999 7)"/>
</clipPath>
<clipPath id="clip1_5840_7602">
<rect width="16" height="16" fill="white" transform="translate(127.2 7)"/>
</clipPath>
</defs>
</svg>
