<svg width="40" height="40" viewBox="0 0 40 40" fill="none" xmlns="http://www.w3.org/2000/svg">
<rect y="0.00012207" width="40" height="40" rx="8" fill="#FFAAAA"/>
<path d="M12 28.0002H28M12 28.0002V24.0002L22.8686 13.1316L22.8704 13.1299C23.2652 12.735 23.463 12.5372 23.691 12.4631C23.8919 12.3979 24.1082 12.3979 24.3091 12.4631C24.5369 12.5372 24.7345 12.7347 25.1288 13.129L26.8686 14.8688C27.2646 15.2649 27.4627 15.463 27.5369 15.6913C27.6022 15.8921 27.6021 16.1085 27.5369 16.3093C27.4628 16.5375 27.265 16.7353 26.8695 17.1307L26.8686 17.1316L16 28.0002L12 28.0002Z" stroke="#320A37" stroke-width="1.5" stroke-linecap="square" stroke-linejoin="round"/>
</svg>
